<svg width="1440" height="800" viewBox="0 0 1440 800" fill="none" xmlns="http://www.w3.org/2000/svg">
<rect width="1440" height="800" fill="#FAFAFA"/>
<path d="M770.79 720.88C789.38 720.88 804.45 712.176 804.45 701.44C804.45 690.704 789.38 682 770.79 682C752.2 682 737.13 690.704 737.13 701.44C737.13 712.176 752.2 720.88 770.79 720.88Z" fill="#AFF4C3" fill-opacity="0.44"/>
<path d="M896.32 772.83C925.707 772.83 949.53 759.076 949.53 742.11C949.53 725.143 925.707 711.39 896.32 711.39C866.933 711.39 843.11 725.143 843.11 742.11C843.11 759.076 866.933 772.83 896.32 772.83Z" fill="#AFF4C3" fill-opacity="0.44"/>
<path d="M635.21 776.15C664.597 776.15 688.42 762.396 688.42 745.43C688.42 728.464 664.597 714.71 635.21 714.71C605.823 714.71 582 728.464 582 745.43C582 762.396 605.823 776.15 635.21 776.15Z" fill="#AFF4C3" fill-opacity="0.44"/>
<path d="M458.496 630.884V630.994C458.496 631.174 458.536 631.364 458.616 631.564C459.064 633.755 459.397 635.968 459.616 638.194C459.806 640.104 459.956 642.284 459.996 644.714C460.091 650.33 459.707 655.943 458.846 661.494C458.626 662.954 458.366 664.494 458.056 666.034C457.566 668.574 456.966 671.234 456.226 673.984C455.896 675.264 455.516 676.574 455.116 677.894L454.646 679.504C454.466 680.154 454.286 680.804 454.116 681.504C452.967 685.946 452.049 690.446 451.366 694.984C450.516 700.634 449.986 706.244 449.696 711.554C449.306 718.634 449.326 725.174 449.496 730.554C449.491 730.644 449.491 730.734 449.496 730.824C449.676 736.294 450.016 740.584 450.246 743.024C450.376 744.454 450.466 745.264 450.476 745.314" stroke="#263238" stroke-linecap="round" stroke-linejoin="round"/>
<path d="M458.526 631.023C457.029 629.692 455.225 628.754 453.276 628.293Z" fill="white"/>
<path d="M458.526 631.023C457.029 629.692 455.225 628.754 453.276 628.293" stroke="#263238" stroke-linecap="round" stroke-linejoin="round"/>
<path d="M459.646 638.223L462.306 635.813" stroke="#263238" stroke-linecap="round" stroke-linejoin="round"/>
<path d="M456.257 673.994C456.117 673.292 455.91 672.605 455.637 671.944C455.243 670.973 454.707 670.067 454.047 669.254C453.554 668.642 452.994 668.089 452.377 667.604" stroke="#263238" stroke-linecap="round" stroke-linejoin="round"/>
<path d="M454.127 681.494C454.504 680.56 455.068 679.713 455.786 679.006C456.503 678.299 457.358 677.747 458.297 677.384" stroke="#263238" stroke-linecap="round" stroke-linejoin="round"/>
<path d="M449.507 718.693C450.397 717.613 451.067 713.523 451.427 711.323C451.517 710.803 451.587 710.323 451.657 710.033" fill="white"/>
<path d="M449.507 718.693C450.397 717.613 451.067 713.523 451.427 711.323C451.517 710.803 451.587 710.323 451.657 710.033" stroke="#263238" stroke-linecap="round" stroke-linejoin="round"/>
<path d="M442.656 726.113C442.952 726.083 443.25 726.083 443.546 726.113C444.856 726.241 446.106 726.722 447.163 727.506C448.22 728.29 449.044 729.347 449.546 730.563" fill="white"/>
<path d="M442.656 726.113C442.952 726.083 443.25 726.083 443.546 726.113C444.856 726.241 446.106 726.722 447.163 727.506C448.22 728.29 449.044 729.347 449.546 730.563" stroke="#263238" stroke-linecap="round" stroke-linejoin="round"/>
<path d="M458.086 666.113C458.086 666.113 458.556 649.883 449.646 643.993" stroke="#263238" stroke-linecap="round" stroke-linejoin="round"/>
<path d="M458.847 700.904C460.017 704.694 451.847 711.904 451.847 711.904C451.847 711.904 441.057 710.554 439.847 706.774C438.637 702.994 441.407 696.774 446.647 695.174C451.887 693.574 457.717 697.114 458.847 700.904Z" fill="#92E3A9"/>
<path d="M467.937 654.973C466.937 658.973 459.177 661.843 459.177 661.843C459.177 661.843 453.847 655.613 454.847 651.593C455.847 647.573 460.157 643.153 463.777 644.083C467.397 645.013 468.977 650.953 467.937 654.973Z" fill="#92E3A9"/>
<path d="M436.947 715.043C441.797 716.923 444.767 725.503 444.767 725.503C444.767 725.503 436.767 729.813 431.927 727.923C427.087 726.033 421.927 720.713 423.327 717.163C424.727 713.613 432.097 713.113 436.947 715.043Z" fill="#92E3A9"/>
<path d="M447.576 667.843C448.558 668.668 449.683 669.306 450.896 669.723C451.505 669.92 452.156 669.946 452.779 669.798C453.402 669.65 453.971 669.333 454.426 668.883C455.426 667.693 455.186 665.883 454.536 664.393C453.236 661.543 448.456 656.693 444.786 658.083C439.486 660.113 445.216 666.113 447.576 667.843Z" fill="#92E3A9"/>
<path d="M458.426 675.114C457.726 675.974 456.987 677.064 457.377 678.114C457.594 678.555 457.951 678.912 458.392 679.129C458.834 679.346 459.334 679.411 459.817 679.314C460.776 679.086 461.671 678.645 462.437 678.024C464.307 676.724 468.147 674.024 465.697 671.454C463.247 668.884 459.846 673.304 458.426 675.114Z" fill="#92E3A9"/>
<path d="M442.776 638.843C442.372 638.867 441.986 639.016 441.672 639.271C441.358 639.526 441.132 639.873 441.026 640.263C440.866 641.193 441.636 642.003 442.376 642.573C444.236 644.013 449.826 647.873 451.066 644.143C452.246 640.623 445.236 638.573 442.776 638.843Z" fill="#92E3A9"/>
<path d="M453.066 626.583C451.916 626.693 450.766 626.273 449.606 626.343C448.446 626.413 447.176 627.343 447.426 628.483C447.676 629.623 448.966 629.873 450.026 629.933C451.851 630.05 453.684 629.926 455.476 629.563C455.901 629.523 456.294 629.322 456.576 629.003C457.046 628.313 456.306 627.393 455.506 627.153C454.685 627.044 453.877 626.849 453.096 626.573L453.066 626.583Z" fill="#92E3A9"/>
<path d="M464.327 634.513C465.477 634.513 466.597 634.053 467.757 634.043C468.917 634.033 470.257 634.883 470.067 636.043C469.877 637.203 468.637 637.533 467.577 637.663C465.765 637.903 463.929 637.903 462.117 637.663C461.688 637.653 461.279 637.478 460.977 637.173C460.467 636.523 461.147 635.553 461.917 635.253C462.732 635.101 463.527 634.856 464.287 634.523L464.327 634.513Z" fill="#92E3A9"/>
<path d="M463.187 719.733C463.452 719.457 463.806 719.283 464.187 719.243C464.444 719.268 464.684 719.381 464.867 719.563C465.049 719.746 465.163 719.986 465.187 720.243C465.242 720.737 465.181 721.237 465.007 721.703C464.217 724.333 455.417 743.323 453.387 739.913C452.197 737.913 455.137 731.223 456.007 729.333C457.667 725.645 460.118 722.368 463.187 719.733V719.733Z" fill="#92E3A9"/>
<path d="M458.897 632.113C458.897 632.113 458.367 627.503 459.477 627.113" stroke="#263238" stroke-linecap="round" stroke-linejoin="round"/>
<path d="M457.917 627.303C458.484 625.675 459.462 624.222 460.757 623.083C462.147 622.083 464.377 622.003 465.387 623.393C466.517 624.943 465.387 627.293 463.657 628.123C461.927 628.953 459.887 628.703 457.987 628.433C457.987 628.153 457.987 627.873 457.987 627.593L457.917 627.303Z" fill="#92E3A9"/>
<path d="M462.657 775.723C453.23 777.313 443.603 777.313 434.177 775.723V775.723L423.097 743.033H473.737L462.657 775.723Z" fill="white" stroke="#263238" stroke-linecap="round" stroke-linejoin="round"/>
<path d="M277.56 679.69C268.133 681.28 258.507 681.28 249.08 679.69V679.69L238 647H288.64L277.56 679.69Z" fill="white" stroke="#263238" stroke-linecap="round" stroke-linejoin="round"/>
<path d="M269.397 539.543V539.653C269.437 539.833 269.477 540.023 269.517 540.223C269.97 542.413 270.304 544.627 270.517 546.853C270.707 548.763 270.847 550.943 270.897 553.373C271 558.975 270.625 564.575 269.777 570.113C269.557 571.573 269.297 573.113 268.987 574.653C268.497 577.193 267.887 579.853 267.157 582.603C266.817 583.883 266.447 585.193 266.047 586.513C265.887 587.053 265.727 587.583 265.577 588.123C265.427 588.663 265.207 589.423 265.037 590.123" stroke="#263238" stroke-linecap="round" stroke-linejoin="round"/>
<path d="M269.416 539.683C268.699 539.055 267.914 538.508 267.076 538.053C266.153 537.566 265.172 537.197 264.156 536.953" fill="white"/>
<path d="M269.416 539.683C268.699 539.055 267.914 538.508 267.076 538.053C266.153 537.566 265.172 537.197 264.156 536.953" stroke="#263238" stroke-linecap="round" stroke-linejoin="round"/>
<path d="M270.537 546.884L273.207 544.474" stroke="#263238" stroke-linecap="round" stroke-linejoin="round"/>
<path d="M267.157 582.654C267.014 581.951 266.803 581.265 266.527 580.604C266.132 579.633 265.597 578.727 264.937 577.914C264.444 577.303 263.884 576.749 263.267 576.264" stroke="#263238" stroke-linecap="round" stroke-linejoin="round"/>
<path d="M265.026 590.113C265.4 589.178 265.962 588.331 266.677 587.624C267.393 586.917 268.247 586.365 269.186 586.003" stroke="#263238" stroke-linecap="round" stroke-linejoin="round"/>
<path d="M260.396 627.353C261.286 626.273 261.966 622.183 262.326 619.983C262.406 619.463 262.486 618.983 262.546 618.693" fill="white"/>
<path d="M260.396 627.353C261.286 626.273 261.966 622.183 262.326 619.983C262.406 619.463 262.486 618.983 262.546 618.693" stroke="#263238" stroke-linecap="round" stroke-linejoin="round"/>
<path d="M253.547 634.733C253.846 634.703 254.148 634.703 254.447 634.733C255.756 634.864 257.005 635.347 258.061 636.13C259.118 636.914 259.942 637.969 260.447 639.183" fill="white"/>
<path d="M253.547 634.733C253.846 634.703 254.148 634.703 254.447 634.733C255.756 634.864 257.005 635.347 258.061 636.13C259.118 636.914 259.942 637.969 260.447 639.183" stroke="#263238" stroke-linecap="round" stroke-linejoin="round"/>
<path d="M268.977 574.733C268.977 574.733 269.457 558.503 260.537 552.613" stroke="#263238" stroke-linecap="round" stroke-linejoin="round"/>
<path d="M269.786 609.563C270.946 613.353 262.786 620.563 262.786 620.563C262.786 620.563 251.986 619.213 250.786 615.433C249.586 611.653 252.356 605.433 257.586 603.833C262.816 602.233 268.616 605.783 269.786 609.563Z" fill="#92E3A9"/>
<path d="M278.847 563.633C277.847 567.633 270.087 570.503 270.087 570.503C270.087 570.503 264.697 564.273 265.737 560.253C266.777 556.233 271.037 551.813 274.657 552.743C278.277 553.673 279.847 559.613 278.847 563.633Z" fill="#92E3A9"/>
<path d="M247.847 623.703C252.697 625.593 255.677 634.163 255.677 634.163C255.677 634.163 247.677 638.473 242.827 636.583C237.977 634.693 232.827 629.373 234.237 625.823C235.647 622.273 242.987 621.813 247.847 623.703Z" fill="#92E3A9"/>
<path d="M258.477 576.503C259.455 577.328 260.577 577.966 261.787 578.383C262.396 578.58 263.047 578.606 263.67 578.458C264.292 578.31 264.862 577.993 265.317 577.543C266.317 576.353 266.077 574.543 265.427 573.053C264.127 570.203 259.357 565.353 255.677 566.743C250.387 568.753 256.107 574.753 258.477 576.503Z" fill="#92E3A9"/>
<path d="M269.316 583.784C268.626 584.644 267.886 585.784 268.266 586.784C268.484 587.225 268.841 587.582 269.282 587.799C269.724 588.016 270.224 588.081 270.706 587.984C271.666 587.758 272.562 587.317 273.326 586.694C275.196 585.404 279.036 582.694 276.586 580.124C274.136 577.554 270.786 581.964 269.316 583.784Z" fill="#92E3A9"/>
<path d="M253.667 547.503C253.264 547.528 252.878 547.678 252.564 547.933C252.251 548.188 252.024 548.534 251.917 548.923C251.757 549.853 252.527 550.663 253.277 551.233C255.137 552.673 260.717 556.533 261.967 552.803C263.137 549.283 256.137 547.233 253.667 547.503Z" fill="#92E3A9"/>
<path d="M263.957 535.243C262.807 535.353 261.657 534.933 260.507 535.003C259.357 535.073 258.067 536.003 258.327 537.143C258.587 538.283 259.857 538.533 260.927 538.593C262.748 538.71 264.578 538.586 266.367 538.223C266.794 538.183 267.191 537.983 267.477 537.663C267.937 536.973 267.197 536.053 266.407 535.813C265.582 535.704 264.771 535.51 263.987 535.233L263.957 535.243Z" fill="#92E3A9"/>
<path d="M275.217 543.173C276.377 543.173 277.497 542.713 278.647 542.703C279.797 542.693 281.147 543.543 280.967 544.703C280.787 545.863 279.527 546.193 278.467 546.323C276.655 546.563 274.819 546.563 273.007 546.323C272.578 546.313 272.169 546.138 271.867 545.833C271.357 545.183 272.037 544.213 272.817 543.913C273.632 543.758 274.426 543.513 275.187 543.183L275.217 543.173Z" fill="#92E3A9"/>
<path d="M274.077 628.393C274.343 628.118 274.697 627.945 275.077 627.903C275.332 627.933 275.569 628.048 275.751 628.229C275.932 628.411 276.047 628.648 276.077 628.903C276.129 629.398 276.064 629.898 275.887 630.363C275.107 632.993 266.297 651.983 264.277 648.573C263.077 646.573 266.017 639.883 266.887 637.993C268.55 634.304 271.005 631.027 274.077 628.393V628.393Z" fill="#92E3A9"/>
<path d="M269.786 540.793C269.786 540.793 269.256 536.183 270.376 535.793" stroke="#263238" stroke-linecap="round" stroke-linejoin="round"/>
<path d="M268.847 535.963C269.406 534.332 270.386 532.876 271.687 531.743C273.077 530.743 275.297 530.663 276.307 532.053C277.437 533.603 276.307 535.953 274.577 536.783C272.847 537.613 270.817 537.363 268.917 537.093C268.917 536.813 268.917 536.533 268.917 536.253L268.847 535.963Z" fill="#92E3A9"/>
<path d="M1255.5 636.884V636.994C1255.5 637.174 1255.54 637.364 1255.62 637.564C1256.06 639.755 1256.4 641.968 1256.62 644.194C1256.81 646.104 1256.96 648.284 1257 650.714C1257.09 656.33 1256.71 661.943 1255.85 667.494C1255.63 668.954 1255.37 670.494 1255.06 672.034C1254.57 674.574 1253.97 677.234 1253.23 679.984C1252.9 681.264 1252.52 682.574 1252.12 683.894L1251.65 685.504C1251.47 686.154 1251.29 686.804 1251.12 687.504C1249.97 691.946 1249.05 696.446 1248.37 700.984C1247.52 706.634 1246.99 712.244 1246.7 717.554C1246.31 724.634 1246.33 731.174 1246.5 736.554C1246.49 736.644 1246.49 736.734 1246.5 736.824C1246.68 742.294 1247.02 746.584 1247.25 749.024C1247.38 750.454 1247.47 751.264 1247.48 751.314" stroke="#263238" stroke-linecap="round" stroke-linejoin="round"/>
<path d="M1255.53 637.023C1254.03 635.692 1252.23 634.754 1250.28 634.293Z" fill="white"/>
<path d="M1255.53 637.023C1254.03 635.692 1252.23 634.754 1250.28 634.293" stroke="#263238" stroke-linecap="round" stroke-linejoin="round"/>
<path d="M1256.65 644.223L1259.31 641.813" stroke="#263238" stroke-linecap="round" stroke-linejoin="round"/>
<path d="M1253.26 679.994C1253.12 679.292 1252.91 678.605 1252.64 677.944C1252.24 676.973 1251.71 676.067 1251.05 675.254C1250.55 674.642 1249.99 674.089 1249.38 673.604" stroke="#263238" stroke-linecap="round" stroke-linejoin="round"/>
<path d="M1251.13 687.494C1251.5 686.56 1252.07 685.713 1252.79 685.006C1253.5 684.299 1254.36 683.747 1255.3 683.384" stroke="#263238" stroke-linecap="round" stroke-linejoin="round"/>
<path d="M1246.51 724.693C1247.4 723.613 1248.07 719.523 1248.43 717.323C1248.52 716.803 1248.59 716.323 1248.66 716.033" fill="white"/>
<path d="M1246.51 724.693C1247.4 723.613 1248.07 719.523 1248.43 717.323C1248.52 716.803 1248.59 716.323 1248.66 716.033" stroke="#263238" stroke-linecap="round" stroke-linejoin="round"/>
<path d="M1239.66 732.113C1239.95 732.083 1240.25 732.083 1240.55 732.113C1241.86 732.241 1243.11 732.722 1244.16 733.506C1245.22 734.29 1246.04 735.347 1246.55 736.563" fill="white"/>
<path d="M1239.66 732.113C1239.95 732.083 1240.25 732.083 1240.55 732.113C1241.86 732.241 1243.11 732.722 1244.16 733.506C1245.22 734.29 1246.04 735.347 1246.55 736.563" stroke="#263238" stroke-linecap="round" stroke-linejoin="round"/>
<path d="M1255.09 672.113C1255.09 672.113 1255.56 655.883 1246.65 649.993" stroke="#263238" stroke-linecap="round" stroke-linejoin="round"/>
<path d="M1255.85 706.904C1257.02 710.694 1248.85 717.904 1248.85 717.904C1248.85 717.904 1238.06 716.554 1236.85 712.774C1235.64 708.994 1238.41 702.774 1243.65 701.174C1248.89 699.574 1254.72 703.114 1255.85 706.904Z" fill="#92E3A9"/>
<path d="M1264.94 660.973C1263.94 664.973 1256.18 667.843 1256.18 667.843C1256.18 667.843 1250.85 661.613 1251.85 657.593C1252.85 653.573 1257.16 649.153 1260.78 650.083C1264.4 651.013 1265.98 656.953 1264.94 660.973Z" fill="#92E3A9"/>
<path d="M1233.95 721.043C1238.8 722.923 1241.77 731.503 1241.77 731.503C1241.77 731.503 1233.77 735.813 1228.93 733.923C1224.09 732.033 1218.93 726.713 1220.33 723.163C1221.73 719.613 1229.1 719.113 1233.95 721.043Z" fill="#92E3A9"/>
<path d="M1244.58 673.843C1245.56 674.668 1246.68 675.306 1247.9 675.723C1248.51 675.92 1249.16 675.946 1249.78 675.798C1250.4 675.65 1250.97 675.333 1251.43 674.883C1252.43 673.693 1252.19 671.883 1251.54 670.393C1250.24 667.543 1245.46 662.693 1241.79 664.083C1236.49 666.113 1242.22 672.113 1244.58 673.843Z" fill="#92E3A9"/>
<path d="M1255.43 681.114C1254.73 681.974 1253.99 683.064 1254.38 684.114C1254.59 684.555 1254.95 684.912 1255.39 685.129C1255.83 685.346 1256.33 685.411 1256.82 685.314C1257.78 685.086 1258.67 684.645 1259.44 684.024C1261.31 682.724 1265.15 680.024 1262.7 677.454C1260.25 674.884 1256.85 679.304 1255.43 681.114Z" fill="#92E3A9"/>
<path d="M1239.78 644.843C1239.37 644.867 1238.99 645.016 1238.67 645.271C1238.36 645.526 1238.13 645.873 1238.03 646.263C1237.87 647.193 1238.64 648.003 1239.38 648.573C1241.24 650.013 1246.83 653.873 1248.07 650.143C1249.25 646.623 1242.24 644.573 1239.78 644.843Z" fill="#92E3A9"/>
<path d="M1250.07 632.583C1248.92 632.693 1247.77 632.273 1246.61 632.343C1245.45 632.413 1244.18 633.343 1244.43 634.483C1244.68 635.623 1245.97 635.873 1247.03 635.933C1248.85 636.05 1250.68 635.926 1252.48 635.563C1252.9 635.523 1253.29 635.322 1253.58 635.003C1254.05 634.313 1253.31 633.393 1252.51 633.153C1251.69 633.044 1250.88 632.849 1250.1 632.573L1250.07 632.583Z" fill="#92E3A9"/>
<path d="M1261.33 640.513C1262.48 640.513 1263.6 640.053 1264.76 640.043C1265.92 640.033 1267.26 640.883 1267.07 642.043C1266.88 643.203 1265.64 643.533 1264.58 643.663C1262.76 643.903 1260.93 643.903 1259.12 643.663C1258.69 643.653 1258.28 643.478 1257.98 643.173C1257.47 642.523 1258.15 641.553 1258.92 641.253C1259.73 641.101 1260.53 640.856 1261.29 640.523L1261.33 640.513Z" fill="#92E3A9"/>
<path d="M1260.19 725.733C1260.45 725.457 1260.81 725.283 1261.19 725.243C1261.44 725.268 1261.68 725.381 1261.87 725.563C1262.05 725.746 1262.16 725.986 1262.19 726.243C1262.24 726.737 1262.18 727.237 1262.01 727.703C1261.22 730.333 1252.42 749.323 1250.39 745.913C1249.2 743.913 1252.14 737.223 1253.01 735.333C1254.67 731.645 1257.12 728.368 1260.19 725.733V725.733Z" fill="#92E3A9"/>
<path d="M1255.9 638.113C1255.9 638.113 1255.37 633.503 1256.48 633.113" stroke="#263238" stroke-linecap="round" stroke-linejoin="round"/>
<path d="M1254.92 633.303C1255.48 631.675 1256.46 630.222 1257.76 629.083C1259.15 628.083 1261.38 628.003 1262.39 629.393C1263.52 630.943 1262.39 633.293 1260.66 634.123C1258.93 634.953 1256.89 634.703 1254.99 634.433C1254.99 634.153 1254.99 633.873 1254.99 633.593L1254.92 633.303Z" fill="#92E3A9"/>
<path d="M1259.66 781.723C1250.23 783.313 1240.6 783.313 1231.18 781.723V781.723L1220.1 749.033H1270.74L1259.66 781.723Z" fill="white" stroke="#263238" stroke-linecap="round" stroke-linejoin="round"/>
<path d="M1074.56 685.69C1065.13 687.28 1055.51 687.28 1046.08 685.69V685.69L1035 653H1085.64L1074.56 685.69Z" fill="white" stroke="#263238" stroke-linecap="round" stroke-linejoin="round"/>
<path d="M1066.4 545.543V545.653C1066.44 545.833 1066.48 546.023 1066.52 546.223C1066.97 548.413 1067.3 550.627 1067.52 552.853C1067.71 554.763 1067.85 556.943 1067.9 559.373C1068 564.975 1067.62 570.575 1066.78 576.113C1066.56 577.573 1066.3 579.113 1065.99 580.653C1065.5 583.193 1064.89 585.853 1064.16 588.603C1063.82 589.883 1063.45 591.193 1063.05 592.513C1062.89 593.053 1062.73 593.583 1062.58 594.123C1062.43 594.663 1062.21 595.423 1062.04 596.123" stroke="#263238" stroke-linecap="round" stroke-linejoin="round"/>
<path d="M1066.42 545.683C1065.7 545.055 1064.91 544.508 1064.08 544.053C1063.15 543.566 1062.17 543.197 1061.16 542.953" fill="white"/>
<path d="M1066.42 545.683C1065.7 545.055 1064.91 544.508 1064.08 544.053C1063.15 543.566 1062.17 543.197 1061.16 542.953" stroke="#263238" stroke-linecap="round" stroke-linejoin="round"/>
<path d="M1067.54 552.884L1070.21 550.474" stroke="#263238" stroke-linecap="round" stroke-linejoin="round"/>
<path d="M1064.16 588.654C1064.01 587.951 1063.8 587.265 1063.53 586.604C1063.13 585.633 1062.6 584.727 1061.94 583.914C1061.44 583.303 1060.88 582.749 1060.27 582.264" stroke="#263238" stroke-linecap="round" stroke-linejoin="round"/>
<path d="M1062.03 596.113C1062.4 595.178 1062.96 594.331 1063.68 593.624C1064.39 592.917 1065.25 592.365 1066.19 592.003" stroke="#263238" stroke-linecap="round" stroke-linejoin="round"/>
<path d="M1057.4 633.353C1058.29 632.273 1058.97 628.183 1059.33 625.983C1059.41 625.463 1059.49 624.983 1059.55 624.693" fill="white"/>
<path d="M1057.4 633.353C1058.29 632.273 1058.97 628.183 1059.33 625.983C1059.41 625.463 1059.49 624.983 1059.55 624.693" stroke="#263238" stroke-linecap="round" stroke-linejoin="round"/>
<path d="M1050.55 640.733C1050.85 640.703 1051.15 640.703 1051.45 640.733C1052.76 640.864 1054 641.347 1055.06 642.13C1056.12 642.914 1056.94 643.969 1057.45 645.183" fill="white"/>
<path d="M1050.55 640.733C1050.85 640.703 1051.15 640.703 1051.45 640.733C1052.76 640.864 1054 641.347 1055.06 642.13C1056.12 642.914 1056.94 643.969 1057.45 645.183" stroke="#263238" stroke-linecap="round" stroke-linejoin="round"/>
<path d="M1065.98 580.733C1065.98 580.733 1066.46 564.503 1057.54 558.613" stroke="#263238" stroke-linecap="round" stroke-linejoin="round"/>
<path d="M1066.79 615.563C1067.95 619.353 1059.79 626.563 1059.79 626.563C1059.79 626.563 1048.99 625.213 1047.79 621.433C1046.59 617.653 1049.36 611.433 1054.59 609.833C1059.82 608.233 1065.62 611.783 1066.79 615.563Z" fill="#92E3A9"/>
<path d="M1075.85 569.633C1074.85 573.633 1067.09 576.503 1067.09 576.503C1067.09 576.503 1061.7 570.273 1062.74 566.253C1063.78 562.233 1068.04 557.813 1071.66 558.743C1075.28 559.673 1076.85 565.613 1075.85 569.633Z" fill="#92E3A9"/>
<path d="M1044.85 629.703C1049.7 631.593 1052.68 640.163 1052.68 640.163C1052.68 640.163 1044.68 644.473 1039.83 642.583C1034.98 640.693 1029.83 635.373 1031.24 631.823C1032.65 628.273 1039.99 627.813 1044.85 629.703Z" fill="#92E3A9"/>
<path d="M1055.48 582.503C1056.45 583.328 1057.58 583.966 1058.79 584.383C1059.4 584.58 1060.05 584.606 1060.67 584.458C1061.29 584.31 1061.86 583.993 1062.32 583.543C1063.32 582.353 1063.08 580.543 1062.43 579.053C1061.13 576.203 1056.36 571.353 1052.68 572.743C1047.39 574.753 1053.11 580.753 1055.48 582.503Z" fill="#92E3A9"/>
<path d="M1066.32 589.784C1065.63 590.644 1064.89 591.784 1065.27 592.784C1065.48 593.225 1065.84 593.582 1066.28 593.799C1066.72 594.016 1067.22 594.081 1067.71 593.984C1068.67 593.758 1069.56 593.317 1070.33 592.694C1072.2 591.404 1076.04 588.694 1073.59 586.124C1071.14 583.554 1067.79 587.964 1066.32 589.784Z" fill="#92E3A9"/>
<path d="M1050.67 553.503C1050.26 553.528 1049.88 553.678 1049.56 553.933C1049.25 554.188 1049.02 554.534 1048.92 554.923C1048.76 555.853 1049.53 556.663 1050.28 557.233C1052.14 558.673 1057.72 562.533 1058.97 558.803C1060.14 555.283 1053.14 553.233 1050.67 553.503Z" fill="#92E3A9"/>
<path d="M1060.96 541.243C1059.81 541.353 1058.66 540.933 1057.51 541.003C1056.36 541.073 1055.07 542.003 1055.33 543.143C1055.59 544.283 1056.86 544.533 1057.93 544.593C1059.75 544.71 1061.58 544.586 1063.37 544.223C1063.79 544.183 1064.19 543.983 1064.48 543.663C1064.94 542.973 1064.2 542.053 1063.41 541.813C1062.58 541.704 1061.77 541.51 1060.99 541.233L1060.96 541.243Z" fill="#92E3A9"/>
<path d="M1072.22 549.173C1073.38 549.173 1074.5 548.713 1075.65 548.703C1076.8 548.693 1078.15 549.543 1077.97 550.703C1077.79 551.863 1076.53 552.193 1075.47 552.323C1073.65 552.563 1071.82 552.563 1070.01 552.323C1069.58 552.313 1069.17 552.138 1068.87 551.833C1068.36 551.183 1069.04 550.213 1069.82 549.913C1070.63 549.758 1071.43 549.513 1072.19 549.183L1072.22 549.173Z" fill="#92E3A9"/>
<path d="M1071.08 634.393C1071.34 634.118 1071.7 633.945 1072.08 633.903C1072.33 633.933 1072.57 634.048 1072.75 634.229C1072.93 634.411 1073.05 634.648 1073.08 634.903C1073.13 635.398 1073.06 635.898 1072.89 636.363C1072.11 638.993 1063.3 657.983 1061.28 654.573C1060.08 652.573 1063.02 645.883 1063.89 643.993C1065.55 640.304 1068 637.027 1071.08 634.393V634.393Z" fill="#92E3A9"/>
<path d="M1066.79 546.793C1066.79 546.793 1066.26 542.183 1067.38 541.793" stroke="#263238" stroke-linecap="round" stroke-linejoin="round"/>
<path d="M1065.85 541.963C1066.41 540.332 1067.39 538.876 1068.69 537.743C1070.08 536.743 1072.3 536.663 1073.31 538.053C1074.44 539.603 1073.31 541.953 1071.58 542.783C1069.85 543.613 1067.82 543.363 1065.92 543.093C1065.92 542.813 1065.92 542.533 1065.92 542.253L1065.85 541.963Z" fill="#92E3A9"/>
<path d="M205.624 256.265C252.308 204.655 332.457 196.066 368.188 212.643C382.071 219.035 394.913 227.372 406.304 237.389C407.796 238.684 409.246 240.015 410.654 241.383C415.051 245.59 419.174 250.059 423 254.763C427.585 260.39 431.721 266.35 435.372 272.59C440.602 281.469 444.746 290.913 447.717 300.728C449.684 307.168 450.974 313.785 451.568 320.477C452.588 333.041 451.701 345.722 449.963 358.183C449.803 359.374 449.629 360.565 449.443 361.756C449.396 362.086 449.35 362.403 449.296 362.746C447.384 375.155 444.679 387.674 438.636 398.497C432.041 410.323 409.029 443.135 384.071 443.983C371.126 444.429 359.693 436.215 347.961 430.389C329.306 421.146 308.192 419.333 287.605 418.796C267.019 418.259 246.178 418.835 226.118 413.876C206.057 408.918 186.39 397.532 176.136 378.605C172.652 372.171 170.007 362.901 170 355.483C170 333.598 173.678 314.457 180.1 297.828C182.14 292.526 184.518 287.352 187.222 282.338C191.183 274.986 195.85 268.014 201.16 261.514L205.624 256.265Z" fill="#92E3A9"/>
<g opacity="0.7">
<path opacity="0.7" d="M205.624 256.265C252.308 204.655 332.457 196.066 368.188 212.643C382.071 219.035 394.913 227.372 406.304 237.389C407.796 238.684 409.246 240.015 410.654 241.383C415.051 245.59 419.174 250.059 423 254.763C427.585 260.39 431.721 266.35 435.372 272.59C440.602 281.469 444.746 290.913 447.717 300.728C449.684 307.168 450.974 313.785 451.568 320.477C452.588 333.041 451.701 345.722 449.963 358.183C449.803 359.374 449.629 360.565 449.443 361.756C449.396 362.086 449.35 362.403 449.296 362.746C447.384 375.155 444.679 387.674 438.636 398.497C432.041 410.323 409.029 443.135 384.071 443.983C371.126 444.429 359.693 436.215 347.961 430.389C329.306 421.146 308.192 419.333 287.605 418.796C267.019 418.259 246.178 418.835 226.118 413.876C206.057 408.918 186.39 397.532 176.136 378.605C172.652 372.171 170.007 362.901 170 355.483C170 333.598 173.678 314.457 180.1 297.828C182.14 292.526 184.518 287.352 187.222 282.338C191.183 274.986 195.85 268.014 201.16 261.514L205.624 256.265Z" fill="white"/>
</g>
<path d="M376.88 315.43C376.525 316.09 376.013 316.653 375.39 317.07C370.777 320.75 366.057 324.28 361.23 327.66C359.46 328.9 357.62 330.18 355.91 331.57C345.63 338.45 351.91 340.13 345.63 354.69C344.15 358.17 344.42 375.22 344.42 375.22H343.91C342.706 374.032 341.427 372.923 340.08 371.9V371.9C339.894 371.775 339.7 371.661 339.5 371.56V371.56C339.312 371.463 339.109 371.399 338.9 371.37C337.9 371.31 334.09 371.77 330.24 371.52L329.24 371.44C328.68 371.38 328.13 371.31 327.58 371.21C327.03 371.11 326.5 371 325.99 370.86C322.336 369.688 318.754 368.306 315.26 366.72V366.72L313.52 365.97L312.66 365.6L311.88 365.26L311.32 365.02L310.78 364.79C309.87 364.41 309.02 364.06 308.24 363.79C307.882 363.662 307.519 363.551 307.15 363.46C307.15 364.28 307.02 365.12 306.91 365.94C306.43 369.85 305.36 373.46 303.45 373.94C303.411 373.95 303.369 373.95 303.33 373.94C303.162 373.971 302.991 373.988 302.82 373.99H302.67C302.247 373.981 301.828 373.904 301.43 373.76V373.76C299.697 373.02 298.28 371.692 297.43 370.01C297.05 369.301 296.838 368.514 296.81 367.71C296.81 364.8 296 347.63 296 342.63C296 337.63 297 328.88 299.49 325.63C300.463 324.252 301.692 323.074 303.11 322.16C304.934 320.639 307.027 319.472 309.28 318.72C311.94 317.85 317.89 315.63 322.04 314.06L315.77 316.48C317.36 319.2 320.77 323.48 326.92 324.03C332.7 324.52 336.28 319.29 338.11 315.47C338.27 315.53 348.33 313.62 350.66 313.73C358.25 314.06 364.44 309.95 367.24 308.32C368.085 307.815 369.032 307.508 370.012 307.421C370.992 307.334 371.979 307.47 372.9 307.818C373.82 308.166 374.649 308.717 375.327 309.431C376.004 310.145 376.511 311.003 376.81 311.94V312.03C377.247 313.117 377.272 314.326 376.88 315.43V315.43Z" fill="#92E3A9" stroke="#263238" stroke-linecap="round" stroke-linejoin="round"/>
<path d="M338 315.53L337.54 315.37L338 315.53Z" fill="white" stroke="#263238" stroke-linecap="round" stroke-linejoin="round"/>
<path d="M346.53 379.62C346.534 379.66 346.534 379.7 346.53 379.74C346.489 379.837 346.427 379.923 346.349 379.993C346.27 380.062 346.177 380.113 346.077 380.142C345.976 380.171 345.87 380.177 345.766 380.159C345.663 380.142 345.565 380.101 345.48 380.04C345.02 379.78 344.31 378.11 344.31 378.11L343.52 377.29L343 376.74C343.08 376.94 343.71 378.47 343.38 379.18C343.363 379.229 343.335 379.273 343.3 379.31C343.079 379.606 342.792 379.845 342.462 380.01C342.132 380.175 341.768 380.261 341.4 380.26V380.26C340.97 380.26 339.71 380.41 338.61 380.48H338.49C338.156 380.499 337.823 380.499 337.49 380.48C336.602 380.366 335.745 380.077 334.97 379.63C333.21 379.372 331.477 378.96 329.79 378.4L329.49 378.24L329.22 378.08C329.042 377.973 328.878 377.846 328.73 377.7C328.12 377.192 327.603 376.584 327.2 375.9V375.9C327.2 375.9 323.14 375.73 317.69 375.31C315.69 375.16 313.53 374.97 311.29 374.75C307.85 374.4 305.01 374.42 302.78 374.11H302.62C302.18 374.05 301.77 373.97 301.38 373.88C300.428 373.694 299.548 373.244 298.84 372.581C298.133 371.917 297.627 371.068 297.38 370.13C297.249 369.686 297.142 369.236 297.06 368.78L298.8 365.78C299.706 365.053 300.718 364.466 301.8 364.04C303.478 363.338 305.331 363.167 307.11 363.55C307.478 363.642 307.842 363.752 308.2 363.88C308.98 364.18 309.83 364.53 310.74 364.88L311.29 365.11L311.85 365.35L312.63 365.69C317.08 367.53 322.39 369.9 325.94 370.9C327.006 371.18 328.093 371.373 329.19 371.48L330.19 371.56C334.04 371.81 337.84 371.35 338.85 371.41C339.86 371.47 342.33 373.82 343.91 375.27C344.34 375.67 344.72 376 344.98 376.2L345.1 376.3L345.19 376.38C345.762 376.968 346.163 377.701 346.35 378.5C346.35 378.5 346.35 378.5 346.35 378.5C346.428 378.768 346.482 379.043 346.51 379.32C346.528 379.419 346.534 379.52 346.53 379.62V379.62Z" fill="white" stroke="#263238" stroke-linecap="round" stroke-linejoin="round"/>
<path d="M346.53 379.62C346.534 379.66 346.534 379.7 346.53 379.74C346.488 379.836 346.425 379.921 346.347 379.99C346.268 380.058 346.175 380.108 346.074 380.136C345.973 380.164 345.868 380.169 345.765 380.15C345.662 380.132 345.564 380.091 345.48 380.03C344.985 379.456 344.59 378.804 344.31 378.1L343.52 377.29L343 376.75C343.07 376.91 343.72 378.47 343.39 379.19C343.373 379.239 343.346 379.283 343.31 379.32C343.199 379.468 343.071 379.602 342.93 379.72C342.498 380.066 341.963 380.257 341.41 380.26V380.26C340.97 380.26 339.72 380.4 338.63 380.48H338.49C338.157 380.499 337.823 380.499 337.49 380.48C336.607 380.362 335.755 380.077 334.98 379.64C333.22 379.377 331.487 378.962 329.8 378.4L329.51 378.26L329.24 378.1C329.067 377.986 328.903 377.859 328.75 377.72C328.131 377.208 327.607 376.592 327.2 375.9V375.9C327.2 375.9 323.26 375.73 317.92 375.32C315.92 375.17 313.61 374.97 311.29 374.74C308.13 374.43 305.52 374.34 303.41 374.01L302.76 373.89L302.01 373.72C301.837 372.495 301.964 371.246 302.38 370.08C302.767 369.097 303.368 368.211 304.14 367.489C304.911 366.766 305.833 366.223 306.84 365.9V365.9C308.089 365.441 309.369 365.07 310.67 364.79L311.21 365.02L311.77 365.26L312.55 365.6C317.08 367.55 322.33 369.91 325.89 370.88C326.955 371.161 328.042 371.351 329.14 371.45L330.14 371.53C333.99 371.79 337.79 371.33 338.8 371.39C339.81 371.45 342.27 373.79 343.8 375.24C344.147 375.572 344.511 375.885 344.89 376.18L345.01 376.27L345.1 376.35C345.683 376.93 346.086 377.666 346.26 378.47C346.338 378.738 346.392 379.012 346.42 379.29C346.471 379.395 346.508 379.506 346.53 379.62V379.62Z" fill="white" stroke="#263238" stroke-linecap="round" stroke-linejoin="round"/>
<path d="M334.56 376.96C334.56 376.96 336.83 378.14 337.73 378.55C338.63 378.96 338.55 380.61 338.55 380.61" fill="white"/>
<path d="M334.56 376.96C334.56 376.96 336.83 378.14 337.73 378.55C338.63 378.96 338.55 380.61 338.55 380.61" stroke="#263238" stroke-linecap="round" stroke-linejoin="round"/>
<path d="M336.99 375.36C338.418 376.38 339.793 377.471 341.11 378.63C341.303 378.856 341.428 379.131 341.472 379.425C341.516 379.718 341.478 380.018 341.36 380.29" fill="white"/>
<path d="M336.99 375.36C338.418 376.38 339.793 377.471 341.11 378.63C341.303 378.856 341.428 379.131 341.472 379.425C341.516 379.718 341.478 380.018 341.36 380.29" stroke="#263238" stroke-linecap="round" stroke-linejoin="round"/>
<path d="M342.97 376.73C341.787 375.462 340.535 374.26 339.22 373.13Z" fill="white"/>
<path d="M342.97 376.73C341.787 375.462 340.535 374.26 339.22 373.13" stroke="#263238" stroke-linecap="round" stroke-linejoin="round"/>
<path d="M337.99 315.55C336.18 319.36 332.59 324.55 326.81 324.1C320.69 323.58 317.25 319.27 315.66 316.54C317.86 315.7 320.09 314.84 321.92 314.12C321.92 312.26 321.86 310.03 321.66 307.82C321.66 307.34 321.56 306.82 321.51 306.37C321.46 305.92 321.4 305.6 321.34 305.23H332.97C332.97 305.23 332.9 305.69 332.81 306.46C332.74 307.15 332.65 308.07 332.58 309.11C332.49 310.49 332.43 312.11 332.47 313.64C333.03 313.83 333.6 314.04 334.17 314.26L335.27 314.64C335.71 314.8 336.14 314.94 336.6 315.09L337.6 315.39C337.733 315.436 337.864 315.489 337.99 315.55V315.55Z" fill="white" stroke="#263238" stroke-linecap="round" stroke-linejoin="round"/>
<path d="M321.51 306.33C321.51 306.33 323.68 311.97 326.83 312.93C329.98 313.89 332.83 306.46 332.83 306.46C332.83 306.46 328.39 311.2 326.74 310.46C325.09 309.72 321.53 306.37 321.53 306.37" fill="#263238"/>
<path d="M319.64 275.18C316.701 277.826 314.371 281.077 312.81 284.71C311.38 287.71 310.17 291.16 311.27 294.3C311.928 295.859 312.859 297.288 314.02 298.52C316.18 301.11 319.21 308.34 321.37 310.93C321.51 306.32 317.65 298.87 318.06 295C318.556 292.01 319.539 289.122 320.97 286.45C322.424 282.946 324.327 279.645 326.63 276.63C327.94 275.05 332.15 272.24 327.9 271.9C325.08 271.67 321.77 273.43 319.64 275.18Z" fill="#263238" stroke="#263238" stroke-linecap="round" stroke-linejoin="round"/>
<path d="M316.92 290.9C316.92 290.9 315.43 288.01 313.86 290.75C312.73 292.75 314.36 295.9 315.06 297.07C315.293 297.403 315.607 297.671 315.974 297.846C316.34 298.021 316.745 298.098 317.15 298.07L316.92 290.9Z" fill="white" stroke="#263238" stroke-linecap="round" stroke-linejoin="round"/>
<path d="M336.5 301.34C335.545 303.228 334.3 304.956 332.81 306.46L331.91 307.39C330.05 309.23 328.04 310.69 326.72 310.39C325.57 310.16 324.07 308.98 322.6 307.47C322.23 307.1 321.87 306.7 321.51 306.3C319.91 304.549 318.536 302.603 317.42 300.51C317.11 299.724 316.912 298.9 316.83 298.06C316.578 295.555 316.491 293.036 316.57 290.52C316.57 289.63 316.57 288.92 316.57 288.52C316.57 286.78 323.09 280.73 323.09 280.73C323.266 280.665 323.455 280.644 323.64 280.67C324.762 280.874 325.842 281.259 326.84 281.81C330.79 283.73 336.3 287.54 336.7 288.99C337.31 291.1 337.08 299.46 336.5 301.34Z" fill="white" stroke="#263238" stroke-linecap="round" stroke-linejoin="round"/>
<path d="M323.55 293.32C323.55 294.02 323.29 294.59 323 294.59C322.71 294.59 322.42 294.04 322.42 293.32C322.42 292.6 322.68 292.03 323 292.03C323.32 292.03 323.55 292.62 323.55 293.32Z" fill="#263238"/>
<path d="M331 292.04C331.32 292.04 331.58 292.61 331.58 293.32C331.58 294.03 331.32 294.59 331 294.59C330.68 294.59 330.42 294.02 330.42 293.32C330.42 292.62 330.68 292.04 331 292.04Z" fill="#263238"/>
<path d="M319.83 290.17C319.83 290.17 320.83 288.17 324.37 288.78" stroke="#263238" stroke-linecap="round" stroke-linejoin="round"/>
<path d="M334.29 290.17C334.29 290.17 333.29 288.17 329.75 288.78" stroke="#263238" stroke-linecap="round" stroke-linejoin="round"/>
<path d="M327.74 298.21C328.1 298.188 328.443 298.05 328.718 297.818C328.994 297.586 329.187 297.271 329.27 296.92C329.27 296.92 327.33 293.92 327.92 290.98" stroke="#263238" stroke-linecap="round" stroke-linejoin="round"/>
<path d="M315.66 283.9C314.855 284.993 314.246 286.218 313.86 287.52" stroke="white" stroke-linecap="round" stroke-linejoin="round"/>
<path d="M324.02 275.9C324.02 275.9 322.91 277.74 318.02 281.49C317.705 281.718 317.404 281.965 317.12 282.23" stroke="white" stroke-linecap="round" stroke-linejoin="round"/>
<path d="M308.34 334.53C307.673 344.037 307.007 353.55 306.34 363.07V362.34" fill="#263238"/>
<path d="M308.34 334.53C307.673 344.037 307.007 353.55 306.34 363.07V362.34" stroke="#263238" stroke-linecap="round" stroke-linejoin="round"/>
<path d="M371.51 303.14C372.413 302.787 373.39 302.66 374.354 302.772C375.318 302.883 376.24 303.229 377.04 303.78C378.634 304.909 379.795 306.55 380.33 308.43C380.967 310.302 380.903 312.341 380.15 314.17C379.76 315.071 379.132 315.849 378.334 316.422C377.537 316.994 376.598 317.339 375.62 317.42C374.161 317.401 372.751 316.89 371.62 315.97C367.88 313.17 366.01 305.51 371.51 303.14Z" fill="white" stroke="#263238" stroke-linecap="round" stroke-linejoin="round"/>
<path d="M379.79 271.21C379.79 271.33 379.79 272.12 379.86 272.26C380.21 273.8 380.95 277.65 379.08 278.43C379.79 280.96 381.53 297.49 381.3 305.92C381.24 308.44 380.8 311.43 378.54 312.51C374.73 314.32 371.11 309.91 371.54 306.46C372.21 301.75 371.98 296.95 372.54 292.19C373.15 287.25 374.27 282.19 373.04 277.36C372.74 277.03 370.82 273.22 370.19 272.17C369.908 271.721 369.686 271.237 369.53 270.73C369.284 269.004 369.164 267.263 369.17 265.52C369.74 264.44 370.48 265.44 370.87 266.15C371.188 267.016 371.298 267.944 371.19 268.86C371.153 269.084 371.185 269.314 371.28 269.52C371.364 269.638 371.478 269.731 371.609 269.791C371.741 269.851 371.886 269.874 372.03 269.86C373.26 269.68 373.21 268.65 373.19 267.86C373.19 265.21 373.19 262.56 373.19 259.93C373.19 259.49 373.33 258.3 373.75 258.26C374.17 258.22 374.8 258.56 374.86 259.97C374.93 261.56 374.93 266.46 374.93 266.46C374.97 266.5 375.019 266.53 375.073 266.545C375.128 266.561 375.185 266.563 375.24 266.55C375.34 266.55 375.38 266.37 375.42 266.27C376.01 263.81 376.61 261.35 377.2 258.89C377.27 258.6 377.7 258 378.01 258C378.75 258 378.77 258.86 378.81 259.11C379.07 260.43 377.22 265.87 376.91 267.11C376.91 267.33 376.91 267.66 377.14 267.6L380.04 261.75C380.175 261.408 380.386 261.102 380.659 260.856C380.931 260.609 381.257 260.43 381.61 260.33C381.659 260.315 381.711 260.315 381.76 260.33C381.812 260.36 381.854 260.406 381.88 260.46C382.16 260.96 381.88 261.65 381.72 262.2C381.56 262.75 379.39 266.79 378.62 268.42C378.51 268.65 378.33 269.17 378.55 269.42C378.77 269.67 379.17 269.19 379.33 268.86C379.82 267.86 380.28 266.92 380.73 265.94C380.87 265.65 381.08 265.24 381.41 265.31C383.36 265.73 380.59 269.82 379.79 271.21Z" fill="white" stroke="#263238" stroke-linecap="round" stroke-linejoin="round"/>
<path d="M374.41 270.35C375.417 271.147 376.291 272.099 377 273.17C377.35 273.708 377.584 274.313 377.687 274.947C377.79 275.58 377.761 276.228 377.6 276.85C377.552 277.012 377.488 277.169 377.41 277.32" fill="white"/>
<path d="M374.41 270.35C375.417 271.147 376.291 272.099 377 273.17C377.35 273.708 377.584 274.313 377.687 274.947C377.79 275.58 377.761 276.228 377.6 276.85C377.552 277.012 377.488 277.169 377.41 277.32" stroke="#263238" stroke-linecap="round" stroke-linejoin="round"/>
<path d="M346.24 332.82C347.298 334.954 348.011 337.243 348.35 339.6C348.64 341.96 348.73 343.81 347.12 350.44" stroke="#263238" stroke-linecap="round" stroke-linejoin="round"/>
<path d="M323.67 279.23C323.533 279.638 323.499 280.074 323.57 280.5C323.76 281.035 324.109 281.499 324.57 281.83C327.767 284.631 331.342 286.967 335.19 288.77C335.673 288.895 336.091 289.197 336.363 289.615C336.635 290.033 336.741 290.537 336.66 291.03V298.76C336.71 299.557 336.632 300.357 336.43 301.13C335.87 302.93 334.63 304.38 333.73 306.04C332.815 307.614 332.352 309.409 332.39 311.23C332.14 309.32 338.82 305.62 340.63 298.1C340.88 297.04 346.08 290.73 342.96 283.32C339.96 276.21 335.24 273.15 333.65 272.78C332.571 272.464 331.432 272.41 330.328 272.622C329.224 272.834 328.186 273.307 327.3 274C325.553 275.301 324.278 277.137 323.67 279.23V279.23Z" fill="#263238" stroke="#263238" stroke-linecap="round" stroke-linejoin="round"/>
<path d="M330.22 300.9C329.65 301.02 329.07 301.13 328.49 301.2C326.49 301.45 324.35 301.14 323.04 299.68C323.14 300.99 324.04 305.94 326.73 306.08C329.42 306.22 330.22 300.9 330.22 300.9Z" stroke="#263238" stroke-linecap="round" stroke-linejoin="round"/>
<path d="M327.62 276.21C328.774 278.828 330.611 281.088 332.94 282.75C334.63 283.96 336.56 284.83 338.11 286.21C340.11 288.04 341.42 290.94 340.65 293.57" stroke="white" stroke-linecap="round" stroke-linejoin="round"/>
<path d="M348.52 316.61C346.594 318.157 345.325 320.376 344.97 322.82C344.626 324.933 344.886 327.1 345.72 329.07" stroke="#263238" stroke-linecap="round" stroke-linejoin="round"/>
<path d="M311.27 333.11C311.11 335.73 309.48 338 307.9 340.11Z" fill="#263238"/>
<path d="M311.27 333.11C311.11 335.73 309.48 338 307.9 340.11" stroke="#263238" stroke-linecap="round" stroke-linejoin="round"/>
<path d="M307.37 353.14C308.164 354.469 309.227 355.619 310.491 356.514C311.755 357.41 313.192 358.031 314.71 358.34" stroke="#263238" stroke-linecap="round" stroke-linejoin="round"/>
<path d="M345.63 354.7C345.63 354.7 342.94 358.7 333.8 359.54" stroke="#263238" stroke-linecap="round" stroke-linejoin="round"/>
<path d="M318.833 255.5C318.953 260.89 316.013 265.71 311.293 268.92V282.01L301.903 272.61C300.385 272.881 298.846 273.015 297.303 273.01C285.203 273.01 275.213 265.17 275.003 255.5C274.793 245.83 284.423 238 296.533 238C308.643 238 318.673 245.88 318.833 255.5Z" fill="white" stroke="#263238" stroke-linecap="round" stroke-linejoin="round"/>
<path d="M286.68 254.83C286.682 255.392 286.517 255.942 286.206 256.411C285.895 256.879 285.453 257.244 284.934 257.461C284.415 257.677 283.844 257.735 283.292 257.627C282.741 257.518 282.234 257.249 281.835 256.852C281.437 256.455 281.166 255.949 281.055 255.398C280.945 254.847 281.001 254.275 281.215 253.756C281.43 253.236 281.794 252.792 282.261 252.479C282.728 252.167 283.278 252 283.84 252C284.591 252 285.312 252.298 285.845 252.828C286.377 253.359 286.677 254.079 286.68 254.83V254.83Z" fill="#92E3A9" stroke="#263238" stroke-linecap="round" stroke-linejoin="round"/>
<path d="M298.83 254.83C298.832 255.392 298.667 255.942 298.357 256.411C298.046 256.879 297.603 257.244 297.084 257.461C296.565 257.677 295.994 257.735 295.442 257.627C294.891 257.518 294.384 257.249 293.986 256.852C293.588 256.455 293.316 255.949 293.206 255.398C293.095 254.847 293.151 254.275 293.366 253.756C293.58 253.236 293.944 252.792 294.412 252.479C294.879 252.167 295.428 252 295.99 252C296.742 252 297.463 252.298 297.995 252.828C298.527 253.359 298.828 254.079 298.83 254.83Z" fill="#92E3A9" stroke="#263238" stroke-linecap="round" stroke-linejoin="round"/>
<path d="M310.98 254.83C310.982 255.392 310.817 255.942 310.506 256.411C310.195 256.879 309.752 257.244 309.234 257.461C308.715 257.677 308.143 257.735 307.592 257.627C307.04 257.518 306.533 257.249 306.135 256.852C305.737 256.455 305.466 255.949 305.355 255.398C305.245 254.847 305.3 254.275 305.515 253.756C305.73 253.236 306.094 252.792 306.561 252.479C307.028 252.167 307.578 252 308.14 252C308.891 252 309.612 252.298 310.144 252.828C310.677 253.359 310.977 254.079 310.98 254.83V254.83Z" fill="#92E3A9" stroke="#263238" stroke-linecap="round" stroke-linejoin="round"/>
</svg>
