<svg width="1440" height="800" viewBox="0 0 1440 800" fill="none" xmlns="http://www.w3.org/2000/svg">
<g clip-path="url(#clip0)">
<rect width="1440" height="800" fill="white"/>
<path d="M1208.68 610.44C1163.15 604.52 1089.56 604.52 1044.32 610.44C1004.31 615.67 999.863 623.767 1030.81 629.667C1005.87 629.317 980.011 630.388 960.96 632.88C927.614 637.254 927.614 644.346 961.36 648.72C995.106 653.093 1049.39 653.093 1082.83 648.72C1109.5 645.216 1114.73 640.042 1098.86 635.858C1137.18 637.104 1179.38 635.778 1209.23 631.854C1254.47 625.954 1254.23 616.361 1208.68 610.44Z" fill="#E6E6E6"/>
<path d="M868.791 428.2C868.861 430.26 868.812 432.322 868.645 434.374C868.723 433.001 868.734 431.627 868.757 430.267L868.791 428.2Z" fill="#EBEBEB"/>
<path d="M851.545 411.782C851.713 412.236 851.893 412.702 852.061 413.168C852.061 413.294 852.286 413.256 852.252 413.168C852.218 413.08 852.095 412.652 852.028 412.4L852.375 412.803C852.375 413.231 852.499 413.66 852.544 414.063H852.622C852.622 413.672 852.521 413.294 852.465 412.916L852.936 413.471C852.768 413.256 852.588 413.055 852.42 412.853C850.872 401.74 845.217 392.429 838.642 384.15C838.474 383.848 838.317 383.52 838.137 383.218C838.137 383.218 838.137 383.218 838.059 383.218C838.049 383.202 838.037 383.19 838.022 383.181C838.008 383.172 837.991 383.167 837.974 383.167C837.958 383.167 837.941 383.172 837.927 383.181C837.912 383.19 837.9 383.202 837.89 383.218L837.7 382.979C837.643 382.979 837.554 382.979 837.599 383.067L837.946 383.634C839.056 389.238 840.739 394.68 842.962 399.85C845.116 404.462 848.336 408.053 851.545 411.782ZM838.822 384.831C843.018 393.777 847.921 402.307 851.478 411.618C848.359 407.927 845.307 404.172 843.265 399.585C841.208 394.623 839.57 389.456 838.373 384.15L838.822 384.831ZM851.994 412.223C850.625 407.486 848.291 403.176 846.148 398.867C844.117 394.785 842.12 390.677 840.033 386.633C842.434 390.123 845.004 393.474 847.158 397.179C849.836 401.872 851.609 407.142 852.364 412.652L851.994 412.223Z" fill="#EBEBEB"/>
<path d="M248.989 330.185C269.314 330.185 285.791 311.682 285.791 288.857C285.791 266.032 269.314 247.529 248.989 247.529C228.664 247.529 212.188 266.032 212.188 288.857C212.188 311.682 228.664 330.185 248.989 330.185Z" fill="#EBEBEB"/>
<path d="M275.498 317.66C289.212 302.259 289.212 277.288 275.498 261.887C261.783 246.485 239.547 246.485 225.833 261.887C212.118 277.288 212.118 302.259 225.833 317.66C239.547 333.062 261.783 333.062 275.498 317.66Z" fill="#DBDBDB"/>
<path d="M263.033 324.015C279.869 316.346 287.981 294.801 281.151 275.894C274.322 256.988 255.137 247.878 238.301 255.548C221.465 263.217 213.353 284.762 220.182 303.668C227.012 322.575 246.197 331.685 263.033 324.015Z" fill="white"/>
<path d="M251.099 255.518H250.258V261.112H251.099V255.518Z" fill="#EBEBEB"/>
<path d="M235.78 259.885L235.051 260.357L237.541 265.203L238.27 264.73L235.78 259.885Z" fill="#EBEBEB"/>
<path d="M224.444 272.222L224.023 273.04L228.338 275.836L228.759 275.018L224.444 272.222Z" fill="#EBEBEB"/>
<path d="M225.147 289.312H220.165V290.257H225.147V289.312Z" fill="#EBEBEB"/>
<path d="M229.051 304.246L224.717 307.043L225.138 307.865L229.472 305.068L229.051 304.246Z" fill="#EBEBEB"/>
<path d="M237.541 314.395L235.053 319.241L235.782 319.713L238.27 314.867L237.541 314.395Z" fill="#EBEBEB"/>
<path d="M251.099 318.442H250.258V324.037H251.099V318.442Z" fill="#EBEBEB"/>
<path d="M263.797 314.391L263.068 314.863L265.559 319.708L266.288 319.236L263.797 314.391Z" fill="#EBEBEB"/>
<path d="M272.987 303.709L272.566 304.527L276.881 307.325L277.301 306.506L272.987 303.709Z" fill="#EBEBEB"/>
<path d="M281.19 289.312H276.197V290.257H281.19V289.312Z" fill="#EBEBEB"/>
<path d="M277.791 272.652L273.457 275.449L273.878 276.271L278.212 273.474L277.791 272.652Z" fill="#EBEBEB"/>
<path d="M265.565 259.892L263.076 264.738L263.805 265.21L266.294 260.364L265.565 259.892Z" fill="#EBEBEB"/>
<path d="M255.554 277.922L241.123 309.783L241.873 310.212L256.304 278.35L255.554 277.922Z" fill="#EBEBEB"/>
<path d="M248.986 277.073L247.886 277.32L254.039 311.84L255.139 311.593L248.986 277.073Z" fill="#DBDBDB"/>
<path d="M1227.16 368.88L1229.33 373.857L1234.23 374.651L1230.69 378.531L1231.52 383.987L1227.16 381.404L1222.78 383.987L1223.62 378.531L1220.09 374.651L1224.97 373.857L1227.16 368.88Z" fill="#FDFDFD"/>
<path d="M934.069 727L936.257 731.977L941.137 732.771L937.603 736.639L938.433 742.107L934.069 739.524L929.693 742.107L930.534 736.639L927 732.771L931.881 731.977L934.069 727Z" fill="#FDFDFD"/>
<path d="M1261.78 343.352L1263.14 346.426L1266.16 346.917L1263.97 349.311L1264.49 352.688L1261.78 351.088L1259.09 352.688L1259.61 349.311L1257.42 346.917L1260.44 346.426L1261.78 343.352Z" fill="#FDFDFD"/>
<path d="M931.398 317.698L932.744 320.773L935.774 321.264L933.586 323.658L934.102 327.035L931.398 325.435L928.694 327.035L929.21 323.658L927.033 321.264L930.051 320.773L931.398 317.698Z" fill="#FDFDFD"/>
<path d="M1248.52 317.22L1249.35 319.11L1251.22 319.412L1249.88 320.899L1250.19 322.978L1248.52 321.995L1246.85 322.978L1247.17 320.899L1245.83 319.412L1247.69 319.11L1248.52 317.22Z" fill="#FDFDFD"/>
<path d="M903.786 262.8L904.616 264.702L906.478 265.005L905.132 266.492L905.446 268.571L903.786 267.588L902.114 268.571L902.428 266.492L901.082 265.005L902.944 264.702L903.786 262.8Z" fill="#FDFDFD"/>
<rect x="1191.7" y="-202" width="901.99" height="1248.65" rx="20" transform="rotate(25 1191.7 -202)" fill="#AFF4C3" fill-opacity="0.44"/>
<rect x="1218.64" y="-179" width="901.99" height="1082.87" rx="20" transform="rotate(25 1218.64 -179)" fill="#AFF4C3" fill-opacity="0.44"/>
<path fill-rule="evenodd" clip-rule="evenodd" d="M170.716 216.569C169.785 215.914 168.966 214.943 167.72 215.082C167.238 215.082 167.339 214.691 167.339 214.402C167.339 209.11 167.339 203.818 167.339 198.526C167.339 198.148 167.339 197.833 167.732 197.618C171.333 195.577 172.893 191.57 175.092 188.143C176.222 186.438 177.035 184.496 177.483 182.43C177.93 180.365 178.002 178.22 177.695 176.123C177.549 174.863 178.043 174.397 178.996 174.145C179.476 173.959 179.995 173.952 180.479 174.124C180.962 174.297 181.382 174.64 181.678 175.102C182.719 177.259 183.414 179.605 183.731 182.032C183.944 184.036 183.305 185.989 183.081 187.979C182.912 189.428 182.621 190.865 182.374 192.339C182.688 192.591 183.047 192.452 183.395 192.465H195.333C197.005 192.465 197.824 193.007 198.059 194.254C198.189 195.024 198.091 195.821 197.779 196.522C197.467 197.223 196.958 197.79 196.331 198.135C196.028 198.299 195.49 198.135 195.456 198.677C195.423 199.219 195.972 199.156 196.253 199.37C197.689 200.479 197.375 202.759 195.748 204.082C195.355 204.41 194.626 204.259 194.559 204.914C194.491 205.569 195.277 205.443 195.602 205.808C196.724 207.068 196.185 209.513 194.48 210.483C194.244 210.571 194.012 210.672 193.784 210.785C193.582 210.937 193.392 211.1 193.784 211.403C195.512 212.789 195.479 214.717 193.784 216.115L193.268 216.531C192.64 216.961 191.901 217.143 191.17 217.048H172.365C171.781 217.138 171.188 216.966 170.716 216.569Z" fill="#F7F2F2"/>
<path fill-rule="evenodd" clip-rule="evenodd" d="M153.011 207.232C153.011 203.88 153.011 200.516 153.011 197.152C153.011 196.471 153.067 196.131 153.819 196.144C157.469 196.194 161.116 196.194 164.759 196.144C165.477 196.144 165.589 196.421 165.589 197.127C165.589 203.897 165.589 210.663 165.589 217.425C165.589 218.282 165.387 218.521 164.613 218.509C161.078 218.509 157.533 218.509 153.999 218.509C153.112 218.509 153 218.181 153 217.249C153.011 213.922 153.011 210.596 153.011 207.232Z" fill="#F7F2F2"/>
<path d="M288.903 712.57C361.354 712.57 420.087 702.145 420.087 689.285C420.087 676.425 361.354 666 288.903 666C216.452 666 157.719 676.425 157.719 689.285C157.719 702.145 216.452 712.57 288.903 712.57Z" fill="#EBEBEB"/>
<path d="M161.567 722.297C229.259 722.297 284.135 712.56 284.135 700.549C284.135 688.538 229.259 678.802 161.567 678.802C93.8752 678.802 39 688.538 39 700.549C39 712.56 93.8752 722.297 161.567 722.297Z" fill="#EBEBEB"/>
<path d="M433.473 722.297C501.165 722.297 556.04 712.56 556.04 700.549C556.04 688.538 501.165 678.802 433.473 678.802C365.781 678.802 310.905 688.538 310.905 700.549C310.905 712.56 365.781 722.297 433.473 722.297Z" fill="#EBEBEB"/>
<path d="M1056.74 622.152C1058.93 622.968 1121.77 622.767 1124.16 621.073C1125.07 620.446 1125.58 610.246 1125.87 597.914C1125.94 595.254 1125.98 592.519 1126.03 589.709C1126.03 586.397 1126.12 583.047 1126.13 579.798C1126.21 565.195 1126.03 552.323 1126.03 552.323H1085.12V579.798V589.709L1085.33 597.914C1085.33 597.914 1061.31 609.983 1058.87 612.153C1056.42 614.324 1054.55 621.362 1056.74 622.152Z" fill="#DD6A57"/>
<path d="M1056.74 622.152C1058.93 622.967 1121.77 622.767 1124.16 621.073C1125.07 620.446 1125.58 610.246 1125.87 597.914C1125.94 595.254 1125.98 592.519 1126.03 589.709C1126.03 586.397 1126.12 583.047 1126.13 579.798H1085.14V589.709L1085.35 597.914C1085.35 597.914 1061.33 609.983 1058.89 612.153C1056.44 614.323 1054.55 621.362 1056.74 622.152Z" fill="white"/>
<path d="M1056.54 622.265C1057.98 622.792 1084.72 622.892 1104.22 622.441C1108.73 622.34 1112.86 622.202 1116.19 622.039C1120.77 621.801 1123.84 621.525 1124.35 621.173C1125.48 620.383 1125.98 605.416 1126.23 589.634H1085.12L1085.34 597.889C1085.34 597.889 1061.18 610.008 1058.72 612.191C1056.26 614.374 1054.35 621.437 1056.54 622.265Z" fill="#AFF4C3" fill-opacity="0.44"/>
<path d="M1057.45 619.443C1068.04 619.129 1110.78 618.929 1121.27 619.443C1121.35 619.443 1121.35 619.518 1121.27 619.518C1110.78 620.095 1068.04 619.907 1057.45 619.581C1057.22 619.631 1057.22 619.455 1057.45 619.443Z" fill="#263238"/>
<path d="M1083.84 595.241C1088 594.363 1093.1 595.066 1096.29 598.353C1096.41 598.491 1096.29 598.679 1096.12 598.629C1092.13 597.21 1088.02 596.272 1083.85 595.831C1083.79 595.818 1083.73 595.783 1083.69 595.73C1083.65 595.677 1083.63 595.611 1083.63 595.541C1083.63 595.472 1083.65 595.404 1083.68 595.35C1083.72 595.295 1083.78 595.257 1083.84 595.241V595.241Z" fill="#263238"/>
<path d="M1080.83 597.3C1085 596.422 1090.09 597.112 1093.29 600.411C1093.42 600.537 1093.29 600.737 1093.11 600.687C1089.13 599.267 1085.02 598.329 1080.85 597.889C1080.79 597.879 1080.73 597.844 1080.69 597.792C1080.65 597.741 1080.63 597.674 1080.62 597.605C1080.62 597.536 1080.64 597.467 1080.68 597.412C1080.71 597.356 1080.77 597.317 1080.83 597.3V597.3Z" fill="#263238"/>
<path d="M1077.85 599.332C1082.01 598.454 1087.12 599.144 1090.25 602.443C1090.37 602.569 1090.25 602.757 1090.08 602.719C1086.11 601.306 1082.01 600.364 1077.85 599.909C1077.79 599.909 1077.72 599.879 1077.67 599.825C1077.62 599.771 1077.59 599.697 1077.59 599.621C1077.59 599.544 1077.62 599.471 1077.67 599.417C1077.72 599.362 1077.79 599.332 1077.85 599.332Z" fill="#263238"/>
<path d="M1074.82 601.352C1078.99 600.474 1084.09 601.176 1087.29 604.463C1087.41 604.601 1087.29 604.789 1087.11 604.739C1083.12 603.319 1079.01 602.381 1074.85 601.941C1074.78 601.93 1074.73 601.896 1074.69 601.844C1074.64 601.792 1074.62 601.726 1074.62 601.657C1074.61 601.587 1074.63 601.519 1074.67 601.464C1074.71 601.408 1074.76 601.368 1074.82 601.352V601.352Z" fill="#263238"/>
<path d="M1077.99 591.165C1080.95 593.674 1084.75 594.74 1088.23 596.183C1088.31 596.207 1088.39 596.21 1088.47 596.191C1088.55 596.173 1088.63 596.134 1088.69 596.078C1088.75 596.022 1088.8 595.95 1088.84 595.868C1088.87 595.786 1088.89 595.696 1088.89 595.606C1088.9 595.605 1088.92 595.6 1088.94 595.59C1088.95 595.581 1088.96 595.568 1088.97 595.552C1088.98 595.537 1088.99 595.518 1088.99 595.5C1088.99 595.481 1088.99 595.461 1088.99 595.443C1087.71 591.339 1085.49 587.679 1082.54 584.829C1080.79 583.211 1077.74 582.082 1076.11 584.604C1074.47 587.125 1076.26 589.685 1077.99 591.165ZM1076.92 587.401C1076.17 582.308 1081.09 584.967 1082.34 586.222C1083.14 587.047 1083.9 587.932 1084.59 588.869C1085.98 590.829 1087.28 592.868 1088.48 594.979C1086.82 594.163 1085.1 593.524 1083.44 592.783C1081.4 591.943 1077.34 590.224 1076.92 587.439V587.401Z" fill="#263238"/>
<path d="M1102.88 588.279C1101.87 585.393 1098.66 585.632 1096.61 586.711C1093.11 588.666 1090.15 591.608 1088 595.242C1087.99 595.258 1087.98 595.276 1087.98 595.295C1087.98 595.314 1087.98 595.333 1087.98 595.351C1087.99 595.369 1088 595.386 1088.01 595.399C1088.02 595.413 1088.04 595.424 1088.05 595.43C1087.98 595.781 1088.18 596.22 1088.55 596.183C1092.2 595.769 1096.16 595.844 1099.58 594.2C1101.58 593.197 1103.84 591.014 1102.88 588.279ZM1093.97 594.251C1092.18 594.501 1090.39 594.652 1088.59 594.978C1090.23 593.27 1091.95 591.658 1093.73 590.148C1094.6 589.428 1095.52 588.774 1096.47 588.191C1097.96 587.325 1103.31 586.121 1101.45 590.838C1100.39 593.435 1096.1 593.987 1093.97 594.251V594.251Z" fill="#263238"/>
<path d="M1139.68 358.268C1139.68 358.268 1128.62 479.96 1128.35 481.541C1128.35 481.742 1128.24 484.05 1128.14 487.901C1127.54 508.853 1126.06 574.19 1126.06 574.19H1080.99C1080.99 574.19 1083.93 496.809 1085.62 478.756C1087.77 455.722 1101.4 358.318 1101.4 358.318L1139.68 358.268Z" fill="#455A64"/>
<path d="M1122.93 485.831C1124.33 459.443 1126.42 433.131 1129.21 406.894C1130.79 392.103 1132.7 377.362 1134.59 362.62C1134.59 362.495 1134.79 362.495 1134.77 362.62C1131.28 388.866 1128.81 415.312 1126.68 441.658C1124.55 468.004 1123.07 494.487 1122.1 520.946C1121.54 536.001 1121.13 550.943 1120.7 565.947C1120.69 566.012 1120.66 566.07 1120.61 566.112C1120.56 566.153 1120.51 566.176 1120.45 566.176C1120.39 566.176 1120.33 566.153 1120.28 566.112C1120.24 566.07 1120.2 566.012 1120.19 565.947C1120.88 539.263 1121.57 512.528 1122.93 485.831Z" fill="#263238"/>
<path d="M1083.82 566.099C1084.94 565.936 1086.27 565.986 1087.48 565.936C1088.68 565.886 1090.18 565.873 1091.53 565.81C1094.15 565.71 1096.78 565.635 1099.42 565.584C1104.68 565.484 1109.94 565.526 1115.2 565.71L1119.55 565.873C1121.09 565.948 1122.64 566.099 1124.18 566.086C1124.19 566.081 1124.21 566.079 1124.22 566.08C1124.23 566.082 1124.24 566.087 1124.25 566.095C1124.27 566.103 1124.27 566.114 1124.28 566.127C1124.29 566.139 1124.29 566.153 1124.29 566.168C1124.29 566.182 1124.29 566.196 1124.28 566.209C1124.27 566.222 1124.27 566.232 1124.25 566.241C1124.24 566.249 1124.23 566.254 1124.22 566.255C1124.21 566.257 1124.19 566.255 1124.18 566.249C1121.52 566.249 1118.84 566.5 1116.19 566.613C1113.54 566.726 1110.96 566.764 1108.36 566.801C1103.1 566.889 1097.81 566.801 1092.58 566.613L1088.23 566.488L1085.92 566.375C1085.23 566.375 1084.55 566.375 1083.86 566.3C1083.68 566.287 1083.69 566.124 1083.82 566.099Z" fill="#263238"/>
<path d="M1139.68 358.268C1139.68 358.268 1128.62 479.96 1128.35 481.541C1128.35 481.742 1128.24 484.05 1128.14 487.901L1106.87 358.268H1139.68Z" fill="#263238"/>
<path d="M1224.52 582.696C1226.46 581.266 1265.15 526.153 1265.43 523.017C1265.54 521.762 1258.67 515.088 1250.14 507.209C1248.3 505.49 1246.45 503.646 1244.44 501.99C1241.91 499.895 1239.35 497.838 1236.86 495.893C1226.09 487.387 1216.74 480.713 1216.74 480.713L1192.17 515.502L1211.33 531.284L1219.21 537.758L1225.14 542.651C1225.14 542.651 1218.81 571.129 1218.83 574.604C1218.85 578.079 1222.6 584.089 1224.52 582.696Z" fill="#DD6A57"/>
<path d="M1224.52 582.697C1226.46 581.266 1265.15 526.154 1265.43 523.017C1265.54 521.763 1258.67 515.088 1250.14 507.21C1248.3 505.491 1246.45 503.647 1244.44 501.991C1241.91 499.896 1239.35 497.838 1236.86 495.894C1229.24 506.57 1218.21 521.813 1211.31 531.285L1219.2 537.758L1225.13 542.651C1225.13 542.651 1218.8 571.13 1218.82 574.605C1218.84 578.08 1222.6 584.089 1224.52 582.697Z" fill="white"/>
<path d="M1224.48 582.897C1226.42 581.467 1265.33 526.04 1265.61 522.879C1265.75 521.423 1255.47 511.726 1244.5 501.739L1219.09 537.708L1225.05 542.625C1225.05 542.625 1218.72 571.267 1218.72 574.767C1218.72 578.268 1222.53 584.327 1224.48 582.897Z" fill="#AFF4C3" fill-opacity="0.44"/>
<path d="M1223.03 580.363C1229.36 570.891 1255.64 533.367 1262.53 524.547C1262.59 524.472 1262.63 524.547 1262.53 524.547C1256.46 534.082 1229.91 571.367 1223.09 580.438C1223.03 580.676 1222.91 580.563 1223.03 580.363Z" fill="#263238"/>
<path d="M1222.28 542.325C1224.23 538.134 1227.91 534.107 1232.17 533.342C1232.34 533.342 1232.38 533.58 1232.26 533.668C1228.8 536.278 1225.59 539.298 1222.71 542.676C1222.66 542.724 1222.6 542.753 1222.54 542.757C1222.48 542.761 1222.41 542.74 1222.36 542.699C1222.31 542.657 1222.28 542.597 1222.26 542.528C1222.25 542.46 1222.25 542.388 1222.28 542.325Z" fill="#263238"/>
<path d="M1221.85 546.214C1223.81 542.024 1227.49 537.984 1231.76 537.231C1231.91 537.231 1231.96 537.47 1231.84 537.558C1228.37 540.166 1225.17 543.182 1222.28 546.553C1222.23 546.597 1222.18 546.623 1222.12 546.626C1222.06 546.629 1222 546.609 1221.95 546.57C1221.9 546.531 1221.86 546.475 1221.84 546.41C1221.83 546.346 1221.83 546.277 1221.85 546.214V546.214Z" fill="#263238"/>
<path d="M1221.43 550.077C1223.38 545.887 1227.07 541.86 1231.33 541.095C1231.5 541.095 1231.53 541.333 1231.42 541.421C1227.95 544.034 1224.74 547.054 1221.85 550.429C1221.81 550.49 1221.75 550.531 1221.68 550.541C1221.61 550.552 1221.54 550.532 1221.49 550.485C1221.43 550.439 1221.39 550.369 1221.38 550.293C1221.37 550.217 1221.39 550.139 1221.43 550.077V550.077Z" fill="#263238"/>
<path d="M1220.97 553.967C1222.92 549.79 1226.61 545.75 1230.87 544.997C1231.04 544.997 1231.07 545.223 1230.96 545.323C1227.49 547.932 1224.29 550.947 1221.4 554.318C1221.36 554.367 1221.3 554.395 1221.23 554.399C1221.17 554.404 1221.11 554.383 1221.06 554.341C1221 554.299 1220.97 554.239 1220.95 554.171C1220.94 554.103 1220.95 554.031 1220.97 553.967V553.967Z" fill="#263238"/>
<path d="M1215.77 544.896C1219.4 543.893 1222.53 541.133 1225.62 539.025C1225.68 538.972 1225.74 538.901 1225.78 538.819C1225.81 538.737 1225.83 538.647 1225.83 538.555C1225.83 538.462 1225.81 538.372 1225.78 538.29C1225.74 538.208 1225.68 538.137 1225.62 538.084C1225.63 538.068 1225.63 538.05 1225.63 538.031C1225.64 538.012 1225.63 537.993 1225.63 537.975C1225.62 537.956 1225.61 537.94 1225.6 537.926C1225.59 537.913 1225.58 537.902 1225.56 537.896C1221.87 536.478 1217.92 536.162 1214.09 536.98C1211.83 537.507 1209.19 539.489 1209.95 542.475C1210.72 545.461 1213.66 545.499 1215.77 544.896ZM1212.48 543.529C1208.42 541.02 1213.33 538.385 1214.99 538.072C1216.06 537.889 1217.15 537.789 1218.23 537.77C1220.47 537.766 1222.71 537.888 1224.94 538.134C1223.35 539.088 1221.84 540.179 1220.29 541.195C1218.43 542.4 1214.71 544.909 1212.48 543.529V543.529Z" fill="#263238"/>
<path d="M1229.12 521.336C1226.45 520.446 1224.61 523.394 1224.13 525.865C1223.34 530.118 1223.57 534.527 1224.79 538.649C1224.79 538.75 1224.89 538.75 1224.96 538.712C1225.01 538.787 1225.07 538.848 1225.14 538.891C1225.22 538.933 1225.3 538.955 1225.38 538.955C1225.46 538.955 1225.54 538.933 1225.61 538.891C1225.69 538.848 1225.75 538.787 1225.8 538.712C1227.77 535.262 1230.3 531.85 1231.22 527.835C1231.78 525.514 1231.64 522.189 1229.12 521.336ZM1227.82 532.828C1226.89 534.559 1225.89 536.215 1225.02 537.972C1224.82 535.469 1224.74 532.957 1224.77 530.444C1224.81 529.237 1224.92 528.034 1225.1 526.844C1225.4 525.012 1227.86 519.58 1230.03 524.121C1231.24 526.681 1228.93 530.783 1227.82 532.828V532.828Z" fill="#263238"/>
<path d="M1100.78 357.591C1100.78 357.591 1104.29 375.857 1115.31 384.789C1115.31 384.789 1143.67 467.653 1149.63 476.372C1159.5 490.825 1207.26 528.023 1207.26 528.023L1235.43 488.04C1235.43 488.04 1189.23 454.932 1185.53 449.726C1183.06 446.276 1163.39 393.07 1163.62 391.175C1166.33 368.681 1156.69 354.705 1156.69 354.705L1100.78 357.591Z" fill="#455A64"/>
<path d="M1153.36 358.205C1155.5 362.539 1157.1 367.183 1158.1 372.005C1158.59 374.456 1158.89 376.949 1158.99 379.457C1159.13 382.13 1158.99 384.814 1158.99 387.499C1159.03 390.238 1159.41 392.957 1160.12 395.579C1160.8 398.088 1161.62 400.597 1162.37 403.106C1164 408.241 1165.71 413.339 1167.5 418.399C1171.08 428.435 1174.98 438.363 1179.19 448.182C1180.07 450.478 1181.28 452.597 1182.78 454.455C1184.51 456.223 1186.4 457.787 1188.42 459.122C1192.56 462.267 1196.71 465.412 1200.87 468.556L1225.9 487.513V487.576C1226.18 487.789 1225.9 488.303 1225.64 488.09C1217.25 481.754 1211.96 477.715 1203.57 471.379L1190.87 461.782C1188.87 460.264 1186.83 458.796 1184.87 457.228C1183.13 455.892 1181.65 454.187 1180.51 452.209C1179.36 450.051 1178.34 447.818 1177.44 445.523C1176.38 443.014 1175.34 440.504 1174.33 437.995C1172.32 433.261 1170.41 428.385 1168.58 423.367C1166.76 418.349 1165 413.272 1163.3 408.137C1162.46 405.561 1161.63 402.976 1160.83 400.383C1160 397.929 1159.32 395.414 1158.8 392.856C1157.87 387.587 1158.7 382.18 1158.25 376.86C1157.84 371.712 1156.7 366.668 1154.87 361.919C1154.38 360.687 1153.83 359.486 1153.22 358.318C1153.14 358.205 1153.36 358.13 1153.36 358.205Z" fill="#263238"/>
<path d="M1137.84 359.636C1138.77 363.156 1140.71 366.24 1143.36 368.418C1146.3 370.742 1149.78 372.07 1153.38 372.244C1153.99 372.244 1154.04 373.311 1153.38 373.323C1146.02 373.323 1138.59 368.129 1137.51 359.648C1137.51 359.485 1137.79 359.448 1137.84 359.636Z" fill="#263238"/>
<path d="M1108.28 379.219C1110.95 380.417 1113.49 381.922 1115.88 383.71C1118.4 385.454 1120.73 387.474 1123.17 389.368C1123.27 389.443 1123.17 389.607 1123.09 389.544C1120.53 387.9 1117.87 386.483 1115.34 384.789C1112.81 383.251 1110.41 381.462 1108.17 379.445C1108.07 379.369 1108.15 379.181 1108.28 379.219Z" fill="#263238"/>
<path d="M1107.22 362.157C1107.62 364.026 1108.1 365.92 1108.55 367.739C1109 369.558 1109.29 371.277 1109.78 372.996C1110.2 374.668 1111.03 376.173 1112.19 377.337C1112.83 377.951 1113.54 378.478 1114.23 379.043L1115.36 379.921C1115.3 379.683 1115.26 379.419 1115.2 379.168C1115.05 378.453 1114.92 377.751 1114.78 377.036C1114.48 375.455 1114.19 373.874 1113.89 372.281C1113.34 369.17 1112.77 366.008 1112.1 362.934C1112.1 362.919 1112.09 362.903 1112.1 362.887C1112.1 362.871 1112.1 362.855 1112.11 362.842C1112.12 362.829 1112.13 362.818 1112.14 362.811C1112.16 362.803 1112.17 362.799 1112.19 362.799C1112.2 362.799 1112.21 362.803 1112.23 362.811C1112.24 362.818 1112.25 362.829 1112.26 362.842C1112.27 362.855 1112.27 362.871 1112.27 362.887C1112.28 362.903 1112.27 362.919 1112.27 362.934C1113.09 365.97 1113.99 368.981 1114.74 372.055C1115.1 373.561 1116.47 381.025 1116.55 381.552C1116.63 382.079 1116.69 382.656 1116.72 383.208C1116.81 383.763 1116.83 384.328 1116.79 384.889C1116.78 384.913 1116.76 384.934 1116.74 384.948C1116.72 384.962 1116.7 384.97 1116.68 384.97C1116.65 384.97 1116.63 384.962 1116.61 384.948C1116.59 384.934 1116.57 384.913 1116.56 384.889V384.889C1116.34 384.379 1116.17 383.839 1116.07 383.283C1115.92 382.756 1115.8 382.217 1115.68 381.665L1115.58 381.075C1114.9 380.661 1114.25 380.097 1113.61 379.62C1112.97 379.143 1112.21 378.629 1111.56 378.064C1110.34 377.024 1109.43 375.598 1108.96 373.975C1108.47 372.223 1108.13 370.425 1107.94 368.605C1107.64 366.485 1107.39 364.34 1107.04 362.232C1107.03 362.094 1107.15 362.031 1107.22 362.157Z" fill="#263238"/>
<path d="M1202.75 520.783C1203.36 519.642 1204.2 518.55 1204.91 517.484C1205.62 516.417 1206.55 515.075 1207.35 513.858C1208.89 511.508 1210.45 509.178 1212.05 506.87C1215.25 502.216 1218.55 497.624 1221.94 493.145L1224.76 489.457C1225.76 488.202 1226.83 486.948 1227.79 485.543C1227.86 485.442 1227.96 485.543 1227.89 485.643C1226.24 487.951 1224.76 490.46 1223.19 492.844C1221.63 495.228 1220.06 497.499 1218.47 499.807C1215.26 504.449 1211.95 509.028 1208.53 513.494C1207.58 514.749 1206.67 516.003 1205.74 517.258C1205.24 517.91 1204.72 518.512 1204.23 519.202C1203.73 519.892 1203.38 520.457 1202.89 520.959C1202.86 520.979 1202.84 520.989 1202.81 520.986C1202.78 520.984 1202.76 520.97 1202.74 520.946C1202.72 520.923 1202.71 520.893 1202.71 520.862C1202.72 520.832 1202.73 520.803 1202.75 520.783V520.783Z" fill="#263238"/>
<path d="M1111.32 239.637C1113.2 240.368 1114.87 241.628 1116.17 243.292C1117.48 244.957 1118.37 246.969 1118.77 249.134C1119.25 252.008 1120.05 254.806 1121.14 257.464C1122.47 260.018 1124.13 262.342 1126.06 264.364C1129.08 267.478 1131.18 271.531 1132.09 275.994C1133.18 281.169 1133.35 286.53 1132.59 291.777C1132.59 291.777 1132.59 291.777 1132.59 291.777C1133.08 286.295 1132.63 280.76 1131.26 275.467C1129.88 270.135 1126.92 267.099 1123.82 263.373C1121.32 260.42 1119.56 256.792 1118.7 252.848C1118.16 250.338 1117.9 247.829 1116.81 245.596C1115.46 243.221 1113.49 241.351 1111.18 240.227C1110.84 240.013 1111.04 239.512 1111.32 239.637Z" fill="#263238"/>
<path d="M1077.61 274.174C1079.69 269.871 1081.93 266.132 1082.87 261.064C1083.72 256.435 1084 251.642 1084.85 247.025C1084.85 246.95 1084.96 246.963 1084.95 247.025C1083.71 255.193 1084.18 263.159 1080.66 270.411C1078.76 274.337 1076.82 278.013 1075.78 282.542C1074.73 287.295 1074.45 292.22 1074.96 297.082C1074.96 297.258 1074.78 297.283 1074.75 297.082C1073.26 289.31 1074.27 281.201 1077.61 274.174V274.174Z" fill="#263238"/>
<path d="M1106.09 296.806C1094.49 299.09 1055.32 285.302 1047.98 276.344C1037.06 263.033 1028.77 239.26 1026.41 230.315C1025.38 226.413 1048.46 214.67 1050.08 218.609C1053.59 227.053 1063.6 253.235 1065.55 255.694C1067.5 258.153 1086.96 273.17 1098.23 279.82C1113.43 288.765 1111.97 295.652 1106.09 296.806Z" fill="#DD6A57"/>
<path d="M1051.79 224.067C1051.61 222.135 1046.24 207.67 1043.27 203.041C1040.22 198.052 1036.46 193.653 1032.13 190.019C1025.28 184.323 1020.05 181.086 1018.7 182.228C1016.2 184.335 1017.69 187.76 1024.55 193.619C1031.41 199.478 1030.49 205.161 1029.57 209.126C1027.28 218.845 1027.23 229.049 1029.42 238.796C1029.42 238.796 1052.51 231.532 1051.79 224.067Z" fill="#DD6A57"/>
<path d="M1029.94 207.696C1029.1 211.823 1024.49 196.405 1020.34 195.15C1016.18 193.896 1016.52 198.726 1018.08 202.966C1023.62 217.645 1021.18 226.953 1027.68 235.384C1034.19 243.815 1029.94 207.696 1029.94 207.696Z" fill="#DD6A57"/>
<path d="M1028.16 241.356C1028.65 240.891 1054.45 224.256 1054.45 224.256C1054.45 224.256 1064.03 251.442 1065.99 254.692C1067.95 257.941 1096.14 277.976 1105.89 284.312C1116.32 291.099 1113.21 301.098 1094.85 297.058C1076.49 293.018 1055.53 285.152 1048.57 278.403C1041.79 271.866 1028.16 241.356 1028.16 241.356Z" fill="#92E3A9"/>
<path d="M1032.02 244.529C1042.63 239.009 1053.03 231.406 1054.92 230.227C1055.01 230.164 1054.92 230.014 1054.83 230.077C1053.03 231.331 1040.3 238.595 1031.92 244.366C1031.91 244.382 1031.9 244.405 1031.89 244.428C1031.89 244.452 1031.9 244.476 1031.91 244.496C1031.92 244.516 1031.94 244.53 1031.96 244.536C1031.98 244.542 1032 244.54 1032.02 244.529Z" fill="#263238"/>
<path d="M1094.39 335.711L1096.3 371.139C1096.3 371.139 1146.8 360.35 1159.12 356.486C1159.12 356.486 1136.95 294.536 1120.49 281.388C1112.25 274.814 1104.47 277.248 1100.5 284.085C1099.49 285.817 1088.47 311.686 1088.46 320.568C1088.47 328.422 1094.39 335.711 1094.39 335.711Z" fill="#92E3A9"/>
<path d="M1112.07 282.041C1111.82 283.157 1106.92 290.396 1102.3 290.095C1100.79 289.995 1100.92 280.836 1100.92 280.836L1100.8 280.146L1099 270.649L1109.08 263.649L1110.53 262.783C1110.53 262.783 1110.87 265.418 1111.27 268.705C1111.27 268.855 1111.27 269.006 1111.32 269.169L1111.39 269.708C1111.46 270.198 1111.52 270.699 1111.57 271.201C1111.63 271.703 1111.66 271.954 1111.68 272.356C1111.71 272.757 1111.76 273.146 1111.81 273.547C1112.06 276.369 1112.15 279.206 1112.07 282.041Z" fill="#DD6A57"/>
<path d="M1111.27 268.642C1110.38 271.291 1108.98 273.692 1107.17 275.678C1105.36 277.665 1103.19 279.189 1100.8 280.146L1099 270.649L1109.08 263.649L1110.53 262.783C1110.53 262.783 1110.87 265.355 1111.27 268.642Z" fill="#263238"/>
<path d="M1086.53 257.928C1087.11 274.965 1096.34 276.508 1099.64 276.37C1102.62 276.232 1112.81 275.379 1113.83 258.367C1114.84 241.355 1107.55 236.274 1100.67 236.161C1093.8 236.048 1085.97 240.903 1086.53 257.928Z" fill="#DD6A57"/>
<path d="M1088.64 253.135C1088.98 253.058 1089.33 252.962 1089.66 252.847C1090.04 252.802 1090.39 252.621 1090.66 252.332C1090.73 252.228 1090.77 252.097 1090.77 251.962C1090.77 251.828 1090.73 251.697 1090.66 251.592C1090.48 251.415 1090.26 251.294 1090.02 251.241C1089.79 251.188 1089.54 251.205 1089.31 251.291C1088.83 251.392 1088.39 251.692 1088.1 252.132C1088.04 252.234 1088.01 252.353 1088 252.475C1088 252.596 1088.03 252.716 1088.09 252.821C1088.14 252.925 1088.23 253.01 1088.32 253.066C1088.42 253.121 1088.53 253.145 1088.64 253.135V253.135Z" fill="#263238"/>
<path d="M1098.69 252.747C1098.34 252.704 1097.99 252.637 1097.64 252.546C1097.27 252.535 1096.91 252.385 1096.62 252.12C1096.55 252.012 1096.51 251.883 1096.51 251.75C1096.51 251.617 1096.55 251.487 1096.62 251.379C1096.78 251.187 1096.99 251.048 1097.23 250.978C1097.46 250.907 1097.7 250.907 1097.94 250.978C1098.43 251.03 1098.88 251.29 1099.21 251.706C1099.28 251.805 1099.33 251.926 1099.34 252.054C1099.35 252.182 1099.32 252.31 1099.27 252.423C1099.21 252.535 1099.13 252.626 1099.02 252.684C1098.92 252.742 1098.8 252.764 1098.69 252.747Z" fill="#263238"/>
<path d="M1096.79 257.163C1096.79 257.163 1096.88 257.163 1096.88 257.263C1096.88 258.43 1097.01 259.773 1098 260.136V260.199C1096.8 260.036 1096.61 258.267 1096.79 257.163Z" fill="#263238"/>
<path d="M1097.71 255.946C1099.38 255.771 1099.56 259.522 1098 259.71C1096.45 259.898 1096.3 256.084 1097.71 255.946Z" fill="#263238"/>
<path d="M1098.38 256.096C1098.68 256.297 1098.98 256.648 1099.34 256.673C1099.71 256.698 1100.04 256.284 1100.29 255.896C1100.29 255.896 1100.29 255.896 1100.36 255.896C1100.36 256.611 1100.18 257.363 1099.5 257.501C1098.83 257.639 1098.38 257.025 1098.2 256.322C1098.14 256.222 1098.25 256.021 1098.38 256.096Z" fill="#263238"/>
<path d="M1090.79 257.288C1090.79 257.288 1090.71 257.288 1090.72 257.401C1090.81 258.555 1090.72 259.91 1089.83 260.349C1089.83 260.349 1089.83 260.424 1089.83 260.412C1090.98 260.161 1091.05 258.367 1090.79 257.288Z" fill="#263238"/>
<path d="M1089.8 256.146C1088.12 256.146 1088.19 259.91 1089.74 259.91C1091.3 259.91 1091.21 256.172 1089.8 256.146Z" fill="#263238"/>
<path d="M1089.12 256.41C1088.86 256.611 1088.6 256.987 1088.29 257.012C1087.97 257.038 1087.65 256.649 1087.4 256.26C1087.4 256.975 1087.61 257.715 1088.23 257.841C1088.85 257.966 1089.2 257.326 1089.36 256.586C1089.3 256.511 1089.21 256.322 1089.12 256.41Z" fill="#263238"/>
<path d="M1092.81 262.395C1092.73 263.228 1092.69 264.066 1092.68 264.904C1092.68 264.979 1092.86 265.004 1093.11 265.017C1093.75 265.125 1094.41 265.032 1095.01 264.749C1095.61 264.465 1096.12 264.002 1096.49 263.411C1096.5 263.394 1096.5 263.374 1096.5 263.356C1096.5 263.337 1096.49 263.32 1096.48 263.307C1096.46 263.294 1096.45 263.287 1096.43 263.285C1096.41 263.283 1096.4 263.288 1096.38 263.298C1095.47 264.057 1094.36 264.466 1093.23 264.465C1093.17 264.239 1093.57 261.491 1093.46 261.479C1092.9 261.566 1092.34 261.734 1091.82 261.981C1092.03 258.342 1092.77 254.767 1092.94 251.141C1092.94 251.111 1092.93 251.083 1092.91 251.061C1092.89 251.04 1092.87 251.028 1092.84 251.028C1092.82 251.028 1092.79 251.04 1092.77 251.061C1092.75 251.083 1092.74 251.111 1092.74 251.141C1091.84 254.938 1091.28 258.826 1091.07 262.746C1091.03 263.223 1092.5 262.545 1092.81 262.395Z" fill="#263238"/>
<path d="M1093.11 264.514C1093.52 265.188 1094.07 265.732 1094.72 266.095C1095.07 266.282 1095.47 266.343 1095.85 266.271C1096.71 266.082 1096.77 265.229 1096.67 264.489C1096.61 264.092 1096.5 263.704 1096.36 263.335C1095.41 264.098 1094.28 264.511 1093.11 264.514V264.514Z" fill="#263238"/>
<path d="M1094.76 266.095C1095.11 266.281 1095.5 266.343 1095.88 266.27C1096.74 266.082 1096.81 265.229 1096.71 264.489C1096.27 264.477 1095.84 264.628 1095.48 264.919C1095.13 265.21 1094.88 265.624 1094.76 266.095V266.095Z" fill="#FF9BBC"/>
<path d="M1113.21 257.852C1109.5 258.078 1109.26 251.58 1109.26 251.58C1109.26 251.58 1105.04 251.379 1104.42 243.839C1103.66 245.398 1102.6 246.742 1101.3 247.763C1100 248.784 1098.5 249.455 1096.93 249.723C1095.73 249.986 1099.63 246.298 1099.63 246.298C1099.63 246.298 1094.99 251.429 1085.92 250.062C1085.28 249.961 1085.46 238.357 1092.37 234.392C1099.28 230.428 1106.44 233.138 1111.01 237.855C1111.01 237.855 1116.28 240.251 1117.09 245.658C1117.9 251.065 1114.64 257.765 1113.21 257.852Z" fill="#263238"/>
<path d="M1111.44 259.785C1111.44 259.785 1114.16 254.039 1116.46 255.055C1118.76 256.071 1117.13 264.075 1114.72 265.468C1114.42 265.673 1114.09 265.808 1113.74 265.866C1113.39 265.924 1113.04 265.903 1112.7 265.805C1112.37 265.706 1112.05 265.532 1111.77 265.293C1111.5 265.054 1111.27 264.755 1111.1 264.414L1111.44 259.785Z" fill="#DD6A57"/>
<path d="M1115.94 257.338C1115.94 257.338 1116 257.338 1115.94 257.413C1115.18 257.978 1114.53 258.717 1114.03 259.582C1113.54 260.447 1113.22 261.418 1113.09 262.431C1113.17 262.22 1113.29 262.03 1113.45 261.876C1113.6 261.721 1113.78 261.606 1113.98 261.536C1114.18 261.467 1114.38 261.446 1114.59 261.475C1114.79 261.504 1114.99 261.582 1115.17 261.704V261.817C1114.84 261.749 1114.51 261.795 1114.21 261.948C1113.91 262.101 1113.66 262.353 1113.5 262.67C1113.23 263.203 1113.01 263.767 1112.84 264.351C1112.78 264.539 1112.48 264.476 1112.52 264.276C1112.18 261.691 1113.54 257.928 1115.94 257.338Z" fill="#263238"/>
<path d="M1124.5 288.012C1143.94 310.807 1159.9 358.268 1150.55 362.671C1142.01 366.736 1114.93 362.972 1103.8 360.024C1100.53 359.146 1107.18 330.943 1110.61 331.872C1114.84 332.988 1125.65 334.719 1126.09 334.682C1127.02 334.606 1117.07 303.054 1113.87 290.948C1109.41 274.074 1117.21 279.456 1124.5 288.012Z" fill="#DD6A57"/>
<path d="M1076.92 325.386C1076.52 326.164 1076.33 327.058 1076.39 327.954C1076.45 328.849 1076.75 329.703 1077.26 330.405C1076 331.064 1075 332.192 1074.42 333.591C1073.48 336.1 1076.67 338.835 1076.67 338.835C1075.5 339.824 1074.62 341.184 1074.15 342.737C1073.48 345.246 1076.31 348.495 1076.31 348.495C1075.68 350.076 1075.58 351.858 1076.03 353.514C1077.38 357.842 1083.53 359.397 1087.43 360.439C1091.33 361.48 1103.21 360.338 1105.54 360.376L1111.66 332.625C1111.66 332.625 1095.38 322.463 1090.63 321.974C1086.65 321.56 1078.62 322.463 1076.92 325.386Z" fill="#DD6A57"/>
<path d="M1077.53 330.065C1081.87 329.375 1086.15 330.14 1090.46 330.642C1090.48 330.649 1090.49 330.66 1090.5 330.675C1090.51 330.689 1090.51 330.706 1090.51 330.724C1090.51 330.741 1090.51 330.759 1090.5 330.773C1090.49 330.788 1090.48 330.799 1090.46 330.805C1086.17 330.253 1081.84 330.655 1077.55 330.291C1077.52 330.294 1077.5 330.286 1077.47 330.267C1077.45 330.248 1077.44 330.221 1077.44 330.191C1077.43 330.161 1077.44 330.131 1077.46 330.107C1077.48 330.084 1077.5 330.068 1077.53 330.065Z" fill="#263238"/>
<path d="M1076.79 338.559C1077.79 338.507 1078.79 338.6 1079.77 338.835C1080.82 339.023 1081.87 339.224 1082.9 339.437C1084.99 339.876 1087.06 340.366 1089.11 340.93C1089.21 340.93 1089.2 341.106 1089.11 341.093C1087.04 340.65 1084.95 340.261 1082.86 339.927L1079.72 339.45C1078.72 339.382 1077.73 339.193 1076.77 338.885C1076.74 338.87 1076.72 338.845 1076.7 338.815C1076.69 338.784 1076.68 338.749 1076.68 338.714C1076.69 338.678 1076.7 338.645 1076.72 338.617C1076.74 338.59 1076.76 338.569 1076.79 338.559V338.559Z" fill="#263238"/>
<path d="M1076.36 348.583C1077.26 348.546 1078.16 348.686 1079.03 348.997L1081.87 349.637C1083.76 350.051 1085.65 350.477 1087.56 350.816C1087.66 350.816 1087.64 351.004 1087.56 350.992C1085.62 350.64 1083.67 350.339 1081.74 349.976L1078.89 349.436C1078.01 349.354 1077.15 349.099 1076.34 348.683C1076.34 348.683 1076.32 348.583 1076.36 348.583Z" fill="#263238"/>
<path d="M1125.08 333.778C1126.42 332.523 1115.81 302.803 1112.91 289.279C1110.02 275.755 1115.63 276.507 1124.52 287.397C1134.05 299.064 1149.9 324.871 1153.5 351.455C1154.63 359.76 1156.15 365.682 1138.85 365.343C1128.82 365.225 1118.81 364.252 1108.91 362.432L1112.68 332.072C1112.68 332.072 1124.7 334.142 1125.08 333.778Z" fill="#92E3A9"/>
<path d="M1115.04 362.194C1117.3 350.175 1117.93 337.178 1118.2 334.92C1118.2 334.82 1118.05 334.807 1118.04 334.92C1117.88 337.14 1115.66 351.907 1114.87 362.182C1114.87 362.294 1115.04 362.307 1115.04 362.194Z" fill="#263238"/>
<path d="M1138.2 336.137C1137.13 335.802 1136.04 335.554 1134.94 335.397L1131.91 334.782L1130.59 334.519H1130.72L1132.48 334.243C1133.06 334.143 1133.6 334.005 1134.24 333.942C1134.33 333.942 1134.33 333.766 1134.24 333.779C1133.66 333.867 1133.12 333.867 1132.49 333.904L1130.65 334.042L1129.05 334.23C1128.07 334.055 1127.09 333.879 1126.11 333.729C1125.68 331.571 1124.98 329.438 1124.41 327.33C1123.83 325.223 1123.14 322.939 1122.47 320.756C1121.79 318.573 1121.1 316.491 1120.36 314.383C1119.99 313.329 1118.01 306.856 1117.35 305.15C1117.35 305.037 1117.19 305.15 1117.22 305.212C1117.6 306.919 1119.63 313.58 1119.92 314.659C1120.14 315.45 1120.36 316.24 1120.59 317.018L1120.5 316.905L1119.31 315.149C1118.52 313.957 1117.74 312.752 1117.06 311.485C1117.06 311.372 1116.86 311.485 1116.91 311.586C1117.57 312.915 1118.19 314.245 1118.87 315.537C1119.22 316.19 1119.58 316.792 1120 317.444C1120.34 318.08 1120.75 318.669 1121.22 319.201V319.201C1121.4 319.841 1121.57 320.455 1121.76 321.133C1122.37 323.291 1122.99 325.448 1123.58 327.606C1124.18 329.764 1124.62 331.621 1125.25 333.565C1123.23 333.264 1121.23 333.001 1119.21 332.725L1116.12 332.323C1115 332.185 1113.87 332.185 1112.74 331.972C1112.64 331.972 1112.61 332.123 1112.74 332.135C1113.87 332.273 1114.93 332.65 1116.01 332.863L1119.05 333.453C1121.19 333.854 1123.35 334.281 1125.5 334.707C1127.65 335.134 1129.76 335.334 1131.89 335.61L1135.1 336.012C1136.13 336.189 1137.18 336.286 1138.22 336.3L1138.2 336.137Z" fill="#263238"/>
<path d="M1142.96 365.368C1133.66 365.004 1116.92 363.586 1109.15 362.432C1109.14 362.427 1109.12 362.425 1109.11 362.426C1109.1 362.428 1109.09 362.433 1109.08 362.441C1109.06 362.449 1109.06 362.46 1109.05 362.472C1109.04 362.485 1109.04 362.499 1109.04 362.514C1109.04 362.528 1109.04 362.542 1109.05 362.555C1109.06 362.567 1109.06 362.578 1109.08 362.586C1109.09 362.594 1109.1 362.599 1109.11 362.601C1109.12 362.602 1109.14 362.6 1109.15 362.595C1120.25 365.25 1131.61 366.317 1142.96 365.769C1143 365.769 1143.05 365.748 1143.08 365.71C1143.12 365.673 1143.14 365.622 1143.14 365.568C1143.14 365.515 1143.12 365.464 1143.08 365.427C1143.05 365.389 1143 365.368 1142.96 365.368Z" fill="#263238"/>
<path d="M1148.23 329.275C1147.72 328.021 1147.18 326.766 1146.66 325.511C1146.06 324.056 1146 324.257 1146.55 325.888C1147.1 327.519 1147.58 328.936 1148.11 330.454C1149.14 333.478 1154.52 351.782 1153.92 358.256C1153.92 358.343 1154.05 358.356 1154.06 358.256C1155.44 349.612 1150.11 334.005 1148.23 329.275Z" fill="#263238"/>
<path d="M227.216 246.306C240.958 262.863 243.757 305.475 226.816 334.134C212.468 358.398 179.155 363.019 164.831 348.554C149.647 333.186 151.877 308.29 162.977 296.173C174.429 283.68 188.171 287.037 195.115 275.898C198.435 270.57 199.671 259.341 204.3 251.138C209.523 242.016 220.187 237.802 227.216 246.306Z" fill="#263238"/>
<path d="M214.589 243.161C216.116 242.453 217.558 231.887 211.972 226.86C206.385 221.832 199.223 227.582 202.277 236.237C204.131 241.701 211.378 244.651 214.589 243.161Z" fill="#263238"/>
<path d="M201.041 258.739C200.038 262.601 198.777 266.352 197.272 269.953C195.765 273.635 193.636 276.869 191.031 279.436C189.65 280.627 188.118 281.523 186.499 282.085C184.923 282.717 183.348 283.244 181.785 283.786C178.655 284.804 175.569 286.02 172.538 287.428C169.534 288.798 166.684 290.639 164.056 292.907C161.431 295.197 159.215 298.136 157.547 301.54C155.878 304.943 154.794 308.737 154.361 312.685C153.887 316.671 153.793 320.713 154.082 324.727C153.563 320.711 153.461 316.628 153.779 312.58C154.125 308.485 155.139 304.521 156.76 300.93C158.416 297.332 160.677 294.221 163.389 291.808C166.088 289.429 169.02 287.487 172.114 286.028C175.192 284.635 178.327 283.444 181.506 282.461C183.081 281.934 184.645 281.422 186.184 280.835C187.707 280.315 189.161 279.519 190.498 278.472C193.076 276.104 195.209 273.069 196.751 269.577C198.39 266.098 199.824 262.476 201.041 258.739V258.739Z" fill="#263238"/>
<path d="M229.846 250.01C233.838 257.183 236.915 265.078 238.971 273.415C241.082 281.795 241.904 290.593 241.395 299.35C241.1 303.731 240.38 308.053 239.25 312.219C238.995 313.273 238.656 314.281 238.329 315.305C238.002 316.328 237.687 317.352 237.274 318.315C236.862 319.279 236.511 320.302 236.063 321.326L234.693 324.14C230.863 331.467 225.924 337.8 220.151 342.79C221.448 341.284 222.817 340.005 224.066 338.5C225.314 336.995 226.598 335.489 227.701 333.864C230.045 330.695 232.121 327.235 233.893 323.538C237.499 316.153 239.665 307.824 240.219 299.214C240.756 290.634 240.029 282.004 238.074 273.747C237.138 269.59 235.976 265.516 234.596 261.555C233.237 257.57 231.649 253.712 229.846 250.01V250.01Z" fill="#263238"/>
<path d="M204.155 226.242C202.506 227.957 201.371 230.311 200.931 232.925C200.71 234.145 200.751 235.414 201.049 236.608C201.346 237.802 201.891 238.878 202.628 239.729C204.199 241.465 206.122 242.636 208.19 243.115C209.239 243.39 210.305 243.551 211.377 243.597C212.46 243.701 213.549 243.553 214.588 243.16C213.606 243.83 212.519 244.23 211.401 244.335C210.278 244.5 209.143 244.5 208.02 244.335C205.708 244.021 203.531 242.822 201.791 240.903C200.905 239.89 200.268 238.586 199.955 237.142C199.642 235.698 199.665 234.173 200.022 232.745C200.315 231.367 200.833 230.078 201.544 228.959C202.255 227.841 203.143 226.916 204.155 226.242V226.242Z" fill="#263238"/>
<path d="M212.116 298.807C207.814 333.923 182.875 405.42 179.106 414.601C176.549 420.833 149.744 404.772 151.998 400.874C154.87 395.862 183.687 333.05 197.429 310.322C205.015 297.784 213.001 291.552 212.116 298.807Z" fill="#F7A9A0"/>
<path d="M152.567 399.88C149.441 404.998 144.545 419.613 143.418 424.49C142.291 429.366 139.892 443.711 142.873 445.216C145.854 446.721 146.763 442.537 146.763 442.537C146.763 442.537 146.52 448.783 149.562 449.912C152.604 451.041 153.961 444.554 153.961 444.554C153.961 444.554 154.082 450.996 157.185 451.839C160.287 452.682 160.82 445.818 160.82 445.818C160.82 445.818 160.711 451.718 163.498 451.086C166.867 450.319 166.067 439.421 167.63 434.153C167.994 432.949 176.222 410.537 176.222 410.537L152.567 399.88Z" fill="#F7A9A0"/>
<path d="M160.154 446.015C159.584 438.007 160.457 434.379 163.377 427.335C163.377 427.2 163.28 427.064 163.207 427.2C159.851 433.762 158.227 438.127 159.839 446.075C159.923 446.466 160.178 446.406 160.154 446.015Z" fill="#263238"/>
<path d="M153.452 444.736C153.452 436.337 154.361 432.393 156.979 424.732C156.979 424.627 156.882 424.536 156.833 424.642C153.755 431.882 152.216 436.277 153.113 444.661C153.149 445.037 153.452 445.112 153.452 444.736Z" fill="#263238"/>
<path d="M146.351 441.695C146.812 433.567 147.672 429.187 150.981 422.127C150.99 422.096 150.991 422.061 150.983 422.029C150.975 421.997 150.958 421.969 150.936 421.95C150.914 421.931 150.887 421.922 150.86 421.924C150.833 421.926 150.807 421.939 150.787 421.962C147.221 427.503 145.554 434.564 146.145 441.62C146.182 442.207 146.315 442.207 146.351 441.695Z" fill="#263238"/>
<path d="M180.828 407.738C180.828 407.738 180.464 417.808 179.507 422.188C178.55 426.568 170.2 441.274 167.534 439.211C164.105 436.547 167.534 426.869 169.788 422.413C169.788 422.413 161.839 416.257 163.135 408.641C164.432 401.025 180.828 407.738 180.828 407.738Z" fill="#F7A9A0"/>
<path d="M166.782 438.098C165.061 432.86 168.26 427.23 170.138 422.7C170.168 422.634 170.185 422.561 170.188 422.485C170.19 422.41 170.177 422.335 170.151 422.267C170.125 422.199 170.086 422.14 170.037 422.094C169.988 422.049 169.932 422.019 169.872 422.007C166.685 419.148 162.843 413.97 162.916 408.807C162.916 408.775 162.906 408.744 162.887 408.722C162.869 408.699 162.845 408.687 162.819 408.687C162.793 408.687 162.768 408.699 162.75 408.722C162.732 408.744 162.722 408.775 162.722 408.807C162.043 414.316 165.485 419.795 169.145 422.655C167.157 427.261 164.152 433.071 166.721 438.128C166.757 438.143 166.794 438.128 166.782 438.098Z" fill="#263238"/>
<path d="M179.458 338.078C179.458 338.078 183.53 340.682 188.256 343.783C194.436 347.802 201.744 352.648 202.519 353.476C202.519 353.476 210.432 321.792 212.214 307.628C213.995 293.464 212.347 290.695 204.034 299.229C200.023 303.368 194.157 312.565 189.177 320.979C183.808 329.98 179.458 338.078 179.458 338.078Z" fill="#FFC727"/>
<path d="M179.458 338.078C179.458 338.078 183.53 340.682 188.256 343.783C194.436 347.802 201.744 352.648 202.519 353.476C202.519 353.476 210.432 321.792 212.214 307.628C213.995 293.464 212.347 290.695 204.034 299.229C200.023 303.368 194.157 312.565 189.177 320.979C183.808 329.98 179.458 338.078 179.458 338.078Z" fill="#FFC727"/>
<path d="M212.189 307.628C210.432 321.792 202.495 353.476 202.495 353.476C201.719 352.648 194.412 347.801 188.231 343.782L184.814 341.555C181.7 339.523 179.434 338.078 179.434 338.078C179.434 338.078 183.784 329.98 189.128 320.979C194.109 312.565 199.974 303.368 203.985 299.229L204.858 298.356C212.432 290.905 213.886 293.976 212.189 307.628Z" fill="#FFC727"/>
<path d="M212.189 307.628C210.432 321.792 202.495 353.476 202.495 353.476C201.719 352.648 194.412 347.801 188.231 343.782L184.814 341.555C181.7 339.523 179.434 338.078 179.434 338.078C179.434 338.078 183.784 329.98 189.128 320.979C194.109 312.565 199.974 303.368 203.985 299.229L204.858 298.356C212.432 290.905 213.886 293.976 212.189 307.628Z" fill="#91373C"/>
<path d="M212.19 307.628C210.432 321.792 202.495 353.476 202.495 353.476C201.719 352.648 194.412 347.801 188.232 343.782L184.814 341.555C189.722 330.823 198.92 311.09 204.858 298.356C212.432 290.905 213.886 293.976 212.19 307.628Z" fill="#263238"/>
<path d="M203.549 346.402C196.78 341.571 189.811 337.19 182.669 333.276C182.584 333.276 182.535 333.397 182.669 333.442C184.402 334.405 195.538 342.082 203.536 346.582C203.573 346.627 203.633 346.462 203.549 346.402Z" fill="#263238"/>
<path d="M212.832 291.687C213.014 293.042 217.74 302.148 222.696 302.223C224.308 302.223 224.805 291.326 224.805 291.326L224.999 290.528L227.592 279.374L217.328 270.042L215.837 268.793C215.837 268.793 215.292 271.909 214.626 275.777C214.626 275.958 214.565 276.138 214.541 276.334C214.516 276.53 214.456 276.755 214.42 276.966C214.323 277.538 214.214 278.14 214.117 278.727C214.02 279.314 213.971 279.615 213.911 280.082C213.85 280.548 213.777 281.015 213.705 281.497C213.225 284.864 212.934 288.269 212.832 291.687V291.687Z" fill="#F7A9A0"/>
<path d="M214.637 275.748C215.399 278.993 216.72 281.993 218.51 284.54C220.299 287.087 222.513 289.121 224.998 290.499L227.591 279.345L217.327 270.013L215.836 268.764C215.836 268.764 215.291 271.879 214.637 275.748Z" fill="#263238"/>
<path d="M239.431 259.898C243.236 279.691 234.196 284.944 230.669 285.772C227.518 286.524 216.83 289.339 211.401 270.133C205.972 250.927 212.177 242.467 219.217 239.894C226.258 237.32 235.625 240.089 239.431 259.898Z" fill="#F7A9A0"/>
<path d="M237.82 255.849C237.432 255.849 237.069 255.849 236.681 255.849C236.283 255.892 235.884 255.776 235.542 255.518C235.447 255.409 235.384 255.264 235.364 255.105C235.344 254.946 235.369 254.784 235.433 254.645C235.584 254.386 235.789 254.184 236.026 254.059C236.263 253.935 236.523 253.893 236.778 253.937C237.307 253.919 237.822 254.15 238.22 254.585C238.29 254.692 238.335 254.82 238.352 254.957C238.368 255.093 238.356 255.232 238.315 255.361C238.275 255.489 238.207 255.602 238.12 255.687C238.034 255.773 237.93 255.829 237.82 255.849V255.849Z" fill="#263238"/>
<path d="M227.47 258.709C227.829 258.563 228.181 258.392 228.525 258.197C228.917 258.081 229.267 257.806 229.518 257.414C229.577 257.272 229.597 257.11 229.575 256.953C229.553 256.795 229.491 256.651 229.397 256.541C229.185 256.364 228.938 256.26 228.683 256.238C228.428 256.217 228.172 256.28 227.943 256.421C227.436 256.62 227.005 257.043 226.731 257.61C226.677 257.746 226.656 257.898 226.67 258.049C226.685 258.2 226.734 258.342 226.813 258.458C226.891 258.575 226.995 258.66 227.112 258.705C227.228 258.749 227.353 258.751 227.47 258.709V258.709Z" fill="#263238"/>
<path d="M230.513 263.164C230.513 263.164 230.44 263.164 230.513 263.3C230.755 264.654 230.852 266.31 229.919 266.942C229.919 266.942 229.919 267.032 229.919 267.017C231.058 266.521 230.913 264.398 230.513 263.164Z" fill="#263238"/>
<path d="M229.313 261.976C227.531 262.217 228.101 266.642 229.725 266.491C231.349 266.341 230.816 261.765 229.313 261.976Z" fill="#263238"/>
<path d="M228.646 262.337C228.367 262.638 228.112 263.135 227.737 263.255C227.361 263.375 226.937 262.984 226.598 262.593H226.537C226.634 263.451 226.998 264.264 227.749 264.264C228.5 264.264 228.815 263.406 228.888 262.533C228.912 262.427 228.755 262.216 228.646 262.337Z" fill="#263238"/>
<path d="M236.353 261.298C236.353 261.298 236.45 261.298 236.45 261.403C236.572 262.773 236.899 264.414 237.953 264.609V264.685C236.705 264.685 236.293 262.622 236.353 261.298Z" fill="#263238"/>
<path d="M237.178 259.688C238.936 259.207 239.602 263.602 237.954 264.053C236.306 264.505 235.7 260.08 237.178 259.688Z" fill="#263238"/>
<path d="M237.953 259.808C238.268 259.974 238.607 260.335 238.946 260.29C239.286 260.244 239.564 259.688 239.734 259.176C239.734 259.176 239.734 259.176 239.807 259.176C239.94 260.004 239.807 260.937 239.225 261.253C238.644 261.569 238.11 260.907 237.819 260.109C237.771 260.079 237.832 259.733 237.953 259.808Z" fill="#263238"/>
<path d="M231.773 273.745C232.064 274.031 232.367 274.453 232.779 274.438C233.206 274.379 233.619 274.209 233.99 273.941C233.99 273.941 234.063 273.941 233.99 273.941C233.856 274.234 233.659 274.476 233.422 274.64C233.185 274.805 232.917 274.886 232.645 274.874C232.414 274.825 232.2 274.693 232.028 274.496C231.856 274.298 231.733 274.043 231.676 273.76C231.676 273.76 231.724 273.7 231.773 273.745Z" fill="#263238"/>
<path d="M235.736 267.876C235.736 267.876 236.233 269.878 236.354 270.887C236.354 270.977 236.185 271.052 235.918 271.127C235.273 271.414 234.576 271.474 233.905 271.302C233.234 271.129 232.614 270.73 232.113 270.149C232.101 270.131 232.094 270.108 232.093 270.085C232.092 270.061 232.098 270.038 232.109 270.019C232.12 270 232.136 269.986 232.154 269.98C232.173 269.973 232.192 269.974 232.21 269.983C233.31 270.62 234.546 270.805 235.736 270.51C235.736 270.224 234.791 267.124 234.912 267.078C235.525 267.027 236.14 267.078 236.742 267.229C235.809 263.029 234.318 259.041 233.47 254.856C233.47 254.706 233.616 254.615 233.664 254.751C235.339 258.957 236.674 263.359 237.651 267.891C237.76 268.388 236.063 267.982 235.736 267.876Z" fill="#263238"/>
<path d="M235.759 270.36C235.469 271.26 234.998 272.053 234.39 272.663C234.042 272.992 233.616 273.172 233.178 273.174C232.245 273.174 231.966 272.211 231.966 271.308C231.943 270.803 231.976 270.297 232.063 269.803C233.214 270.481 234.511 270.676 235.759 270.36Z" fill="#263238"/>
<path d="M234.39 272.663C234.042 272.993 233.617 273.173 233.179 273.175C232.246 273.175 231.967 272.211 231.967 271.308C232.435 271.163 232.928 271.217 233.368 271.463C233.808 271.709 234.168 272.132 234.39 272.663V272.663Z" fill="#FF9BBC"/>
<path d="M211.669 269.471C213.426 269.034 217.364 262.156 216.286 251.499C216.286 251.499 216.722 261.147 216.286 262.652C215.85 264.157 218.479 258.784 217.716 250.174C220.113 251.726 222.675 252.846 225.326 253.501C228.707 254.058 230.707 253.666 230.901 253.335C231.094 253.004 226.053 251.965 224.575 250.325C224.575 250.325 233.821 253.802 237.905 253.486C238.378 253.486 237.578 241.534 230.828 237.606C224.078 233.677 214.892 240.812 212.65 244.424C212.65 244.424 209.621 245.523 206.906 251.785C204.192 258.046 209.778 269.952 211.669 269.471Z" fill="#263238"/>
<path d="M214.371 270.434C214.371 270.434 210.081 264.79 207.972 266.792C205.864 268.794 209.62 277.328 212.468 278.141C212.827 278.268 213.203 278.303 213.573 278.245C213.943 278.187 214.3 278.037 214.622 277.804C214.945 277.57 215.226 277.259 215.449 276.887C215.673 276.516 215.833 276.093 215.922 275.642L214.371 270.434Z" fill="#F7A9A0"/>
<path d="M122.502 606.994C122.975 606.709 189.407 566.038 200.398 540.45C220.042 494.692 226.877 436.201 229.349 422.458C234.436 406.625 237.893 390.058 239.637 373.148C239.637 373.148 186.099 373.148 186.099 373.148C186.099 373.148 172.054 406.518 179.3 430.09C179.955 432.257 167.388 506.327 161.244 515.103C154.409 524.841 101.998 557.519 101.113 558.076L122.502 606.994Z" fill="#37474F"/>
<path d="M214.65 381.609C212.008 398.407 209.002 415.129 205.973 431.822C202.943 448.514 199.756 464.936 196.399 481.388C194.703 489.696 192.958 497.98 191.164 506.238C189.528 513.764 187.929 521.471 183.809 527.537C179.688 533.603 174.429 537.772 169.388 542.107C164.056 546.622 158.578 551.003 153.004 555.112C141.758 563.42 130.161 570.961 118.515 578.352L114.238 581.046C113.922 581.242 114.238 581.829 114.528 581.633C126.332 574.348 138.111 566.912 149.526 558.724C155.238 554.64 160.844 550.355 166.346 545.87C169.049 543.657 171.715 541.354 174.356 539.036C176.842 536.89 179.233 534.579 181.518 532.112C183.762 529.664 185.684 526.795 187.214 523.608C188.684 520.299 189.839 516.788 190.655 513.147C192.606 505.155 194.23 497.011 195.915 488.929C199.405 472.221 202.636 455.443 205.609 438.595C208.627 421.752 211.426 404.849 213.862 387.855C214.165 385.793 214.456 383.731 214.771 381.669C214.843 381.518 214.662 381.458 214.65 381.609Z" fill="#263238"/>
<path d="M239.637 373.149C237.893 390.058 234.436 406.625 229.349 422.459C229.095 423.843 228.804 425.68 228.464 427.922C228.38 428.464 228.295 429.021 228.198 429.593C228.101 430.165 227.968 431.098 227.834 431.956C227.701 432.814 227.604 433.461 227.483 434.274L227.228 435.885C227.071 436.953 226.889 438.082 226.707 439.241C226.635 439.708 226.562 440.19 226.477 440.656C226.344 441.544 226.186 442.462 226.041 443.396C225.423 447.159 224.732 451.268 223.956 455.648C223.617 457.499 223.266 459.426 222.89 461.383C222.514 463.339 222.139 465.341 221.678 467.403C221.508 468.276 221.327 469.149 221.145 470.022C220.224 474.538 219.194 479.34 218.067 484.171C217.825 485.24 217.57 486.309 217.316 487.392C216.168 492.159 214.924 496.995 213.583 501.902C213.244 503.122 212.892 504.341 212.553 505.575C211.85 508.013 211.119 510.462 210.36 512.92L190.534 373.149C203.464 373.118 239.65 373.118 239.637 373.149Z" fill="#263238"/>
<path d="M82.6818 569.921C80.2581 571.426 77.9556 573.052 75.7016 574.587L71.6057 577.402C63.1229 583.272 56.7244 588.059 56.6396 589.293C56.3609 593.056 86.9959 667.849 88.7651 670.031C90.5344 672.214 95.612 666.058 96.3148 661.964C96.7147 659.48 96.3148 645.512 95.9997 634.945C95.7574 628.157 95.5514 622.768 95.5514 622.768L102.701 618.524L135.311 599.242L114.71 549.285C114.71 549.285 98.1326 559.611 82.6818 569.921Z" fill="white"/>
<path d="M127.859 607.612C127.034 606.227 105.403 553.154 105.403 553.154C105.403 553.154 57.2696 584.161 56.0335 588.903C54.7975 593.644 88.147 671.778 89.5527 672.576C90.9584 673.374 96.4843 668.06 98.1082 659.978C99.32 654.107 97.781 624.997 97.781 624.997L127.859 607.612Z" fill="#C3B58C"/>
<path d="M100.701 627.119C100.592 621.489 98.7989 615.077 94.9816 611.721C94.8362 611.6 94.6908 611.856 94.7635 612.022C96.9901 616.842 98.7978 621.944 100.156 627.239C100.176 627.321 100.219 627.39 100.277 627.435C100.335 627.48 100.405 627.496 100.472 627.481C100.539 627.466 100.6 627.421 100.642 627.354C100.685 627.287 100.706 627.204 100.701 627.119V627.119Z" fill="#455A64"/>
<path d="M103.998 625.026C103.889 619.397 102.083 612.984 98.2658 609.628C98.1204 609.507 97.975 609.763 98.0477 609.929C100.284 614.743 102.092 619.846 103.44 625.146C103.466 625.221 103.511 625.283 103.569 625.321C103.627 625.36 103.693 625.373 103.757 625.359C103.822 625.346 103.88 625.305 103.924 625.245C103.968 625.184 103.994 625.107 103.998 625.026V625.026Z" fill="#455A64"/>
<path d="M107.282 622.935C107.172 617.306 105.367 610.894 101.562 607.537C101.416 607.417 101.271 607.673 101.344 607.838C103.571 612.656 105.375 617.758 106.724 623.055C106.75 623.13 106.795 623.192 106.853 623.23C106.91 623.269 106.977 623.283 107.041 623.269C107.105 623.255 107.164 623.214 107.208 623.154C107.252 623.093 107.277 623.016 107.282 622.935V622.935Z" fill="#455A64"/>
<path d="M110.578 620.843C110.457 615.214 108.663 608.801 104.846 605.445C104.7 605.309 104.555 605.58 104.628 605.746C106.854 610.567 108.662 615.668 110.02 620.963C110.046 621.038 110.092 621.1 110.149 621.138C110.207 621.177 110.273 621.19 110.337 621.176C110.402 621.163 110.461 621.122 110.504 621.062C110.548 621.001 110.574 620.924 110.578 620.843Z" fill="#455A64"/>
<path d="M113.862 618.75C113.753 613.121 111.948 606.709 108.143 603.352C107.985 603.217 107.84 603.488 107.924 603.653C110.152 608.471 111.956 613.573 113.305 618.871C113.331 618.945 113.376 619.007 113.434 619.046C113.491 619.084 113.557 619.098 113.622 619.084C113.686 619.07 113.745 619.029 113.789 618.969C113.832 618.908 113.858 618.831 113.862 618.75V618.75Z" fill="#455A64"/>
<path d="M207.73 432.648C207.73 432.648 212.311 486.594 214.444 513.748C214.989 520.506 215.353 525.624 215.486 527.806C215.486 528.679 215.559 542.768 215.583 561.206C215.583 577.372 215.583 596.849 215.583 613.632V625.673C215.583 641.147 215.583 652.165 215.583 652.165H259.73C259.73 652.165 259.73 651.653 259.73 650.659C259.73 650.148 259.73 649.516 259.73 648.763C259.73 648.01 259.73 647.107 259.73 646.084C259.73 645.497 259.73 644.849 259.73 644.187C259.73 639.566 259.863 633.169 259.948 625.719C259.948 621.895 260.033 617.816 260.081 613.542C260.42 580.337 260.699 535.738 259.936 522.598C259.839 521.093 259.754 519.512 259.669 517.902C257.682 480.709 256.579 426.567 241.892 373.058H186.026C186.026 373.058 186.511 404.486 198.023 427.244C201.338 428.819 204.578 430.623 207.73 432.648V432.648Z" fill="#37474F"/>
<path d="M249.296 539.592C249.077 522.252 248.508 504.972 247.417 487.633C246.327 470.293 244.654 453.495 242.424 436.547C240.288 419.494 237.314 402.619 233.517 386.017C233.033 383.94 232.536 381.863 232.027 379.801C232.021 379.772 232.01 379.745 231.995 379.722C231.98 379.699 231.962 379.679 231.941 379.664C231.92 379.65 231.897 379.64 231.874 379.636C231.85 379.633 231.826 379.635 231.803 379.643C231.78 379.651 231.758 379.664 231.739 379.683C231.72 379.701 231.705 379.724 231.693 379.749C231.681 379.775 231.673 379.804 231.67 379.833C231.667 379.863 231.669 379.893 231.676 379.921C235.25 396.478 238.328 413.291 240.667 430.255C243.006 447.218 244.545 464.483 245.708 481.702C246.872 498.922 247.526 516.322 247.878 533.616C248.229 550.911 248.253 568.235 248.12 585.53C247.987 602.825 247.441 620.149 247.405 637.399C247.405 639.566 247.405 641.734 247.405 643.901C247.405 644.052 247.587 644.037 247.587 643.901C247.841 635.231 248.253 626.561 248.484 617.877C248.714 609.192 248.92 600.492 249.089 591.792C249.356 574.392 249.514 556.992 249.296 539.592Z" fill="#263238"/>
<path d="M215.207 436.923C212.456 435.057 209.633 433.371 206.724 431.836C203.816 430.301 200.871 428.916 197.999 427.32C197.89 427.32 197.793 427.456 197.902 427.531C200.738 429.337 203.513 431.279 206.385 432.995C209.199 434.678 212.102 436.122 215.074 437.315C215.28 437.39 215.377 437.029 215.207 436.923Z" fill="#263238"/>
<path d="M215.692 658.487C215.692 661.829 215.789 665.14 215.861 668.331C215.861 670.318 215.958 672.259 216.007 674.126C216.334 686.167 216.867 695.439 217.703 696.102C220.273 698.119 287.832 698.375 290.195 697.411C292.558 696.448 290.486 688.004 287.868 685.37C286.281 683.789 276.114 677.844 268.382 673.403C263.414 670.559 259.451 668.346 259.451 668.346L259.669 658.502L260.723 613.647H215.498C215.498 613.647 215.401 636.722 215.692 658.487Z" fill="white"/>
<path d="M263.305 625.719C261.935 626.005 214.044 625.719 214.044 625.719C214.044 625.719 214.311 693.061 217.146 696.583C219.982 700.105 291.177 698.886 292.376 697.712C293.576 696.538 292.292 687.973 287.25 682.494C283.615 678.521 262.044 666.916 262.044 666.916L263.305 625.719Z" fill="#C4B58C"/>
<path d="M264.905 664.643C260.821 662.189 255.38 661.241 251.26 663.95C251.102 664.056 251.26 664.326 251.369 664.326C255.828 664.061 260.297 664.389 264.699 665.305C264.77 665.339 264.848 665.336 264.918 665.298C264.987 665.26 265.041 665.189 265.069 665.102C265.096 665.014 265.094 664.916 265.063 664.83C265.033 664.744 264.976 664.677 264.905 664.643V664.643Z" fill="#455A64"/>
<path d="M264.905 660.053C260.821 657.599 255.38 656.651 251.26 659.36C251.102 659.466 251.26 659.737 251.369 659.737C255.828 659.471 260.297 659.799 264.699 660.715C264.77 660.749 264.848 660.747 264.918 660.708C264.987 660.67 265.041 660.6 265.069 660.512C265.096 660.424 265.094 660.326 265.063 660.24C265.033 660.154 264.976 660.087 264.905 660.053V660.053Z" fill="#455A64"/>
<path d="M264.905 655.462C260.821 653.008 255.38 652.06 251.26 654.77C251.102 654.875 251.26 655.146 251.369 655.146C255.828 654.88 260.297 655.208 264.699 656.124C264.77 656.158 264.848 656.156 264.918 656.118C264.987 656.08 265.041 656.009 265.069 655.921C265.096 655.833 265.094 655.735 265.063 655.649C265.033 655.563 264.976 655.496 264.905 655.462V655.462Z" fill="#455A64"/>
<path d="M264.905 650.87C260.821 648.417 255.38 647.468 251.26 650.178C251.102 650.283 251.26 650.554 251.369 650.554C255.828 650.288 260.297 650.616 264.699 651.532C264.77 651.566 264.848 651.564 264.918 651.526C264.987 651.488 265.041 651.417 265.069 651.329C265.096 651.241 265.094 651.144 265.063 651.058C265.033 650.971 264.976 650.904 264.905 650.87V650.87Z" fill="#455A64"/>
<path d="M264.905 646.279C260.821 643.826 255.38 642.878 251.26 645.587C251.102 645.692 251.26 645.963 251.369 645.963C255.828 645.697 260.297 646.025 264.699 646.942C264.77 646.976 264.848 646.973 264.918 646.935C264.987 646.897 265.041 646.826 265.069 646.738C265.096 646.651 265.094 646.553 265.063 646.467C265.033 646.381 264.976 646.313 264.905 646.279V646.279Z" fill="#455A64"/>
<path d="M243.358 354.619L248.29 396.764C248.29 396.764 189.843 397.773 176.113 396.583C176.113 396.583 190.461 317.787 205.197 297.888C212.589 287.924 221.254 288.676 226.78 295.63C228.173 297.391 244.848 324.771 246.605 335.232C248.169 344.459 243.358 354.619 243.358 354.619Z" fill="#6D2F2E"/>
<path d="M216.867 309.418C225.156 310.924 273.726 307.356 282.306 294.833C292.728 279.676 305.331 249.918 308.518 240.375C310.602 234.039 286.487 217.798 285.13 223.818C283.009 233.241 264.25 268.839 262.796 271.984C261.341 275.13 239.771 284.342 227.204 292.139C215.934 299.123 211.026 308.32 216.867 309.418Z" fill="#F7A9A0"/>
<path d="M284.851 225.173C284.851 225.173 287.589 212.65 289.698 204.567C290.91 200.052 293.442 192.526 295.527 189.741C298.641 185.512 313.825 170.324 316.867 174.825C319.63 178.889 305.246 189.877 305.246 189.877C305.246 189.877 318.976 177.188 321.557 182.847C324.138 188.507 306.567 198.246 306.567 198.246C306.567 198.246 320.915 185.602 322.841 191.969C324.296 196.77 308.772 206.705 308.772 206.705C308.772 206.705 321.157 195.943 322.829 200.804C324.683 206.178 310.808 216.458 310.808 216.458C313.389 229.719 310.25 237.335 307.5 242.423C306.821 243.642 284.851 225.173 284.851 225.173Z" fill="#F7A9A0"/>
<path d="M300.253 193.851C301.828 192.346 303.404 190.69 305.1 189.336C306.797 187.981 308.494 186.641 310.263 185.452C312.561 183.846 315.001 182.573 317.534 181.659C313.297 183.942 309.24 186.709 305.415 189.923C303.743 191.292 302.022 192.572 300.35 193.957C300.253 194.002 300.217 193.926 300.253 193.851Z" fill="#263238"/>
<path d="M304.167 201.497C306.239 199.6 308.239 197.644 310.384 195.868C312.529 194.091 314.661 192.661 316.879 191.081C317.061 190.961 317.049 191.081 316.879 191.247C314.71 192.932 312.807 194.693 310.662 196.409C308.517 198.125 306.3 199.751 304.203 201.557C304.167 201.587 304.143 201.527 304.167 201.497Z" fill="#263238"/>
<path d="M306.579 208.767C309.707 205.779 313.073 203.196 316.625 201.06C316.795 200.955 316.771 201.151 316.625 201.286C313.244 203.77 310.566 205.681 306.688 208.902C306.603 208.902 306.47 208.902 306.579 208.767Z" fill="#263238"/>
<path d="M250.642 275.312L262.445 307.026C262.445 307.026 233.215 316.749 219.207 314.416C209.088 312.731 209.427 302.736 223.375 292.426C234.391 284.282 250.642 275.312 250.642 275.312Z" fill="#91373C"/>
<path d="M257.075 307.328C254.008 297.513 250.517 287.911 246.617 278.563C246.617 278.443 246.435 278.563 246.484 278.654C247.429 280.927 252.628 296.851 256.918 307.418C256.966 307.538 257.112 307.448 257.075 307.328Z" fill="#263238"/>
<path d="M237.565 313.407C232.985 314.235 228.61 316.418 224.235 318.164C224.215 318.177 224.199 318.199 224.19 318.225C224.181 318.252 224.18 318.282 224.188 318.309C224.195 318.336 224.21 318.359 224.23 318.374C224.25 318.389 224.273 318.394 224.296 318.39C225.98 317.788 227.701 317.246 229.422 316.689C228.634 317.276 227.871 317.908 227.083 318.48C226.974 318.48 227.083 318.751 227.18 318.676C228.392 317.818 229.604 317.17 230.815 316.222C233.117 315.504 235.38 314.604 237.59 313.528C237.59 313.528 237.638 313.392 237.565 313.407Z" fill="#263238"/>
</g>
<defs>
<clipPath id="clip0">
<rect width="1440" height="800" fill="white"/>
</clipPath>
</defs>
</svg>
