<svg width="1440" height="800" viewBox="0 0 1440 800" fill="none" xmlns="http://www.w3.org/2000/svg">
<g clip-path="url(#clip0)">
<rect width="1440" height="800" fill="#FEFEFF"/>
<rect x="1246.12" y="419" width="684.275" height="1031.94" rx="20" transform="rotate(25 1246.12 419)" fill="#AFF4C3" fill-opacity="0.44"/>
<rect x="-736" y="25.667" width="775.327" height="651.917" rx="20" transform="rotate(-25 -736 25.667)" fill="#E6F8EB"/>
<rect x="-535" y="-124.691" width="563.887" height="731.581" rx="20" transform="rotate(-25 -535 -124.691)" fill="#AFF4C3" fill-opacity="0.44"/>
<path d="M1315.86 654.309C1315.86 654.309 1311.66 655.309 1310.36 658.519C1309.06 661.729 1300 683.449 1300 686.039C1300.09 687.733 1300.78 689.342 1301.94 690.579L1323.31 699.319C1323.31 699.319 1327.84 698.019 1331.4 698.669C1334.96 699.319 1337.23 705.469 1340.79 706.119C1344.35 706.769 1359.25 705.789 1366.37 702.549C1373.49 699.309 1375.76 689.279 1375.76 682.479C1375.76 675.679 1373.49 668.879 1371.55 667.589L1368.64 665.649" stroke="#91373C" stroke-miterlimit="10"/>
<path d="M1363.78 662.408C1363.78 662.408 1361.51 660.468 1367.34 661.408C1373.17 662.348 1387.74 681.478 1392.6 687.628C1397.46 693.778 1402.31 694.108 1406.19 690.218C1410.07 686.328 1407.19 681.478 1405.87 678.888C1404.55 676.298 1399.07 669.818 1397.13 665.288C1395.19 660.758 1389.68 649.098 1385.13 646.188C1380.58 643.278 1373.8 642.628 1363.44 646.838C1353.08 651.048 1348.22 654.608 1348.22 654.608" stroke="#91373C" stroke-miterlimit="10"/>
<path d="M1319.75 653.988L1340.15 652.698" stroke="#91373C" stroke-miterlimit="10"/>
<path d="M1330.43 692.838C1334.32 691.548 1333.99 689.598 1337.88 684.418C1341.77 679.238 1346.3 661.758 1346.62 659.488C1346.8 658.115 1346.44 656.726 1345.62 655.608L1365.05 665.378" stroke="#91373C" stroke-miterlimit="10"/>
<path d="M1306.8 690.588H1324.61C1327.78 688.281 1330.24 685.142 1331.73 681.518C1333.99 675.688 1338.53 662.418 1339.82 659.518C1340.22 658.771 1340.42 657.939 1340.42 657.093C1340.42 656.247 1340.22 655.415 1339.82 654.668" stroke="#91373C" stroke-miterlimit="10"/>
<path d="M1326.55 698.348C1326.55 698.348 1317.48 693.488 1321.69 694.138C1325.9 694.788 1335.29 700.608 1342.09 700.608C1348.89 700.608 1351.48 696.728 1354.72 691.548C1357.96 686.368 1365.72 672.438 1365.72 668.238" stroke="#91373C" stroke-miterlimit="10"/>
<path d="M1394.54 699.959C1394.54 699.959 1400.04 692.839 1405.22 699.319C1410.4 705.799 1403.28 715.829 1400.37 718.739C1397.46 721.649 1389.37 721.659 1388.06 721.009C1387.23 720.578 1386.47 720.032 1385.8 719.389" stroke="#91373C" stroke-miterlimit="10"/>
<path d="M1400 692.838L1416.84 712.268C1416.84 712.268 1417.16 707.088 1420.08 704.818C1421.39 703.728 1422.8 702.755 1424.28 701.908L1408.74 685.718" stroke="#91373C" stroke-miterlimit="10"/>
<path d="M1426.27 702.588H1428.53C1428.53 702.588 1434.36 709.718 1434.36 711.658C1434.36 713.598 1425.3 726.548 1422.36 726.548C1419.42 726.548 1415.24 724.288 1415.24 724.288C1415.24 724.288 1416.86 722.018 1418.15 719.748C1419.44 717.478 1418.15 714.248 1418.15 714.248C1418.15 714.248 1423.98 718.458 1423.01 723.958" stroke="#91373C" stroke-miterlimit="10"/>
<path d="M1330.81 742.408C1336.69 743.708 1347.4 743.898 1349.54 744.968C1352.13 746.258 1357.95 762.448 1357.95 762.448" stroke="#91373C" stroke-miterlimit="10"/>
<path d="M1325.9 700.288C1325.9 700.288 1322.99 702.228 1324.61 704.818C1326.23 707.408 1329.79 709.028 1329.79 709.028C1329.79 709.028 1324.93 714.208 1325.9 716.478C1326.46 717.936 1326.46 719.55 1325.9 721.008C1325.9 721.008 1324.9 723.918 1325.25 725.538C1325.6 727.158 1325.9 729.748 1325.9 729.748C1325.9 729.748 1323.96 739.138 1327.84 741.408" stroke="#91373C" stroke-miterlimit="10"/>
<path d="M1415.26 724.248C1415.26 724.248 1409.11 729.748 1408.78 736.548C1408.45 743.348 1407.78 745.288 1407.78 745.288" stroke="#91373C" stroke-miterlimit="10"/>
<path d="M1431.86 693.318C1431.44 696.022 1430.77 698.681 1429.86 701.258" stroke="#91373C" stroke-miterlimit="10"/>
<path d="M1432.46 683.588C1432.52 684.988 1432.51 686.348 1432.46 687.658" stroke="#91373C" stroke-miterlimit="10"/>
<path d="M1383.85 643.308C1383.85 643.308 1403.6 639.738 1420.76 656.898C1427.01 663.031 1431.01 671.086 1432.12 679.768" stroke="#91373C" stroke-miterlimit="10"/>
<path d="M1306.48 669.799C1307.77 669.799 1308.81 668.755 1308.81 667.469C1308.81 666.182 1307.77 665.139 1306.48 665.139C1305.19 665.139 1304.15 666.182 1304.15 667.469C1304.15 668.755 1305.19 669.799 1306.48 669.799Z" fill="#E3D239"/>
<path d="M1354.23 707.358C1355.52 707.358 1356.56 706.315 1356.56 705.028C1356.56 703.741 1355.52 702.698 1354.23 702.698C1352.94 702.698 1351.9 703.741 1351.9 705.028C1351.9 706.315 1352.94 707.358 1354.23 707.358Z" fill="#E3D239"/>
<path d="M1350.45 746.958C1351.74 746.958 1352.78 745.915 1352.78 744.628C1352.78 743.341 1351.74 742.298 1350.45 742.298C1349.16 742.298 1348.12 743.341 1348.12 744.628C1348.12 745.915 1349.16 746.958 1350.45 746.958Z" fill="#E3D239"/>
<path d="M1394.92 687.658C1394.92 687.197 1394.78 686.746 1394.53 686.363C1394.27 685.979 1393.91 685.681 1393.48 685.505C1393.05 685.328 1392.58 685.283 1392.13 685.374C1391.68 685.464 1391.26 685.687 1390.94 686.014C1390.61 686.341 1390.39 686.757 1390.3 687.21C1390.21 687.662 1390.26 688.131 1390.44 688.557C1390.62 688.982 1390.92 689.345 1391.3 689.6C1391.69 689.855 1392.14 689.99 1392.6 689.988C1392.91 689.988 1393.21 689.928 1393.49 689.811C1393.77 689.693 1394.03 689.522 1394.24 689.305C1394.46 689.089 1394.63 688.832 1394.75 688.549C1394.86 688.266 1394.92 687.964 1394.92 687.658Z" fill="#E3D239"/>
<path d="M1389.47 653.488C1390.76 653.488 1391.8 652.445 1391.8 651.158C1391.8 649.871 1390.76 648.828 1389.47 648.828C1388.18 648.828 1387.14 649.871 1387.14 651.158C1387.14 652.445 1388.18 653.488 1389.47 653.488Z" fill="#E3D239"/>
<path d="M1349.4 656.389C1350.69 656.389 1351.73 655.345 1351.73 654.059C1351.73 652.772 1350.69 651.729 1349.4 651.729C1348.11 651.729 1347.07 652.772 1347.07 654.059C1347.07 655.345 1348.11 656.389 1349.4 656.389Z" fill="#E3D239"/>
<path d="M1427.32 705.028C1428.61 705.028 1429.65 703.985 1429.65 702.698C1429.65 701.411 1428.61 700.368 1427.32 700.368C1426.03 700.368 1424.99 701.411 1424.99 702.698C1424.99 703.985 1426.03 705.028 1427.32 705.028Z" fill="#E3D239"/>
<rect x="1267.64" y="461" width="901.99" height="1082.87" rx="20" transform="rotate(25 1267.64 461)" fill="#AFF4C3" fill-opacity="0.44"/>
</g>
<defs>
<clipPath id="clip0">
<rect width="1440" height="800" fill="white"/>
</clipPath>
</defs>
</svg>
